<svg xmlns="http://www.w3.org/2000/svg" version="1.1" viewBox="0 0 128 128" xmlns:xlink="http://www.w3.org/1999/xlink" transform="rotate(312)" width="128" height="128"><path fill="#FFFFfF" d="M125.015 0h0.625q2.03 0.41 2.36 2.453v0.5q-0.15 0.68 -0.568 1.482 -31.905 61.153 -63.813 122.305 -0.505 0.968 -1.948 1.26h-0.625q-0.71 -0.182 -1.607 -0.632 -9.367 -4.702 -18.773 -9.387a0.095 0.095 0 0 1 -0.025 -0.152l9.685 -9.688q0.092 -0.092 0.18 0.005 1.907 2.105 3.808 4.23c1.952 2.185 3.853 1.738 5.143 -0.733q21.41 -41.028 42.815 -82.055c0.86 -1.653 0.775 -3.545 -1.238 -4.242 -1.28 -0.443 -2.098 0.122 -3.217 0.708q-40.765 21.275 -81.532 42.54c-2.092 1.09 -2.942 3.042 -0.92 4.855q2.25 2.018 4.508 4.06 0.105 0.095 0.005 0.195l-9.67 9.67a0.12 0.117 -35.6 0 1 -0.19 -0.03Q5.145 77.623 0.28 67.85c-0.14 -0.28 -0.188 -0.625 -0.28 -0.927v-0.563q0.255 -1.44 1.39 -2.033Q62.748 32.31 124.108 0.3c0.287 -0.15 0.598 -0.22 0.907 -0.3Z"/><path fill="#FFFF" d="m78.222 42.29 15.438 -8.055a0.083 0.083 0 0 1 0.11 0.11l-8.055 15.438a0.083 0.083 0 0 1 -0.133 0.02l-7.38 -7.38a0.083 0.083 0 0 1 0.02 -0.133Z"/><path fill="#FFFF" d="M61.875 53.313c-0.76 0 -1.495 0.077 -2.09 0.605q-1.692 1.502 -3.478 3.373 -0.258 0.27 -0.525 0.01l-2.11 -2.033a0.12 0.117 -37.1 0 1 0.028 -0.19l19.323 -10.065a0.215 0.212 53.9 0 1 0.247 0.04l9.703 9.703q0.102 0.102 0.035 0.23l-10.065 19.295q-0.085 0.168 -0.217 0.033l-2.175 -2.215q-0.092 -0.095 0.003 -0.185 1.81 -1.78 3.565 -3.607c0.443 -0.46 0.563 -1.468 0.565 -2.21q0.01 -4.89 0.005 -9.78c-0.003 -2.732 -1.942 -2.995 -4.282 -3q-4.263 -0.007 -8.53 -0.003Z"/><path fill="#FFFF" d="M39.875 64c-0.77 -0.022 -1.46 0.492 -2.058 1.09q-5.525 5.522 -11.037 11.037a0.19 0.188 47.9 0 1 -0.28 -0.015c-0.667 -0.82 -1.645 -1.31 -2.28 -1.875q-1.288 -1.15 -2.578 -2.295a0.098 0.098 0 0 1 0.02 -0.158l26.855 -13.995q0.117 -0.063 0.21 0.033l3.382 3.38q0.11 0.11 0 0.223l-6.69 6.685q-0.102 0.102 -0.203 0.003c-1.343 -1.33 -3.408 -4.058 -5.343 -4.112Z"/><path fill="#FFFF" d="m35.825 85.27 26.558 -26.56a0.077 0.077 0 0 1 0.055 -0.022h6.798a0.077 0.077 0 0 1 0.077 0.077v6.795a0.077 0.077 0 0 1 -0.022 0.055L42.735 92.172a0.077 0.077 0 0 1 -0.11 0l-6.8 -6.793a0.077 0.077 0 0 1 0 -0.11Z"/><path fill="#FFFF" x="-27.06" y="-4.42" transform="rotate(-5 3552.103 -1496.897)" width="54.12" height="8.84" rx="0.59" d="M-6.617 -1.105H6.617A0.147 0.147 0 0 1 6.765 -0.958V0.958A0.147 0.147 0 0 1 6.617 1.105H-6.617A0.147 0.147 0 0 1 -6.765 0.958V-0.958A0.147 0.147 0 0 1 -6.617 -1.105z"/><path fill="#FFFF" d="M62.895 90.198c1.228 -1.228 1.57 -2.755 0.247 -4.122q-1.54 -1.595 -3.195 -3.212a0.237 0.237 0 0 1 -0.003 -0.338l6.645 -6.65q0.095 -0.095 0.19 0l3.388 3.385q0.11 0.11 0.037 0.247l-13.957 26.747q-0.07 0.138 -0.18 0.03 -2.083 -2.038 -2.885 -3.212 -0.787 -1.153 -1.302 -1.677 -0.09 -0.09 0 -0.18 5.51 -5.515 11.015 -11.018Z"/><path fill="#FFFF" d="M36.408 114.499a0.25 0.25 0 0 1 -0.353 0L13.502 91.945a0.25 0.25 0 0 1 0 -0.353l10.32 -10.32a0.25 0.25 0 0 1 0.353 0l22.553 22.553a0.25 0.25 0 0 1 0 0.353l-10.32 10.32Zm-7.808 -22.054a2.538 2.538 0 0 0 0 -3.588l-2.796 -2.797a2.538 2.538 0 0 0 -3.588 0l-0.156 0.156a2.538 2.538 0 0 0 0 3.588l2.797 2.797a2.538 2.538 0 0 0 3.588 0l0.156 -0.156Zm13.323 13.319a2.54 2.54 0 0 0 0 -3.592l-2.775 -2.775a2.54 2.54 0 0 0 -3.592 0l-0.159 0.159a2.54 2.54 0 0 0 0 3.592l2.775 2.775a2.54 2.54 0 0 0 3.592 0l0.159 -0.159Z"/><path fill="#FFFF" d="M40.235 128h-0.438q-1.067 -0.177 -1.532 -0.64L0.64 89.735q-0.445 -0.448 -0.64 -1.5v-0.438c0.275 -1.462 1.43 -2.388 2.475 -3.335a0.122 0.122 0 0 1 0.193 0.037q1.825 3.842 3.81 7.59 0.405 0.765 1.028 1.387 13.655 13.658 27.317 27.302 0.54 0.54 1.235 0.873 3.763 1.808 7.45 3.712 0.113 0.058 0.028 0.152c-1.113 1.24 -1.907 2.197 -3.3 2.482Z"/><path fill="#FFFF" x="-4.42" y="-27.07" transform="translate(207.98 367.9)" width="8.84" height="54.14" rx="0.58" d="M-0.96 -6.768H0.96A0.145 0.145 0 0 1 1.105 -6.623V6.623A0.145 0.145 0 0 1 0.96 6.768H-0.96A0.145 0.145 0 0 1 -1.105 6.623V-6.623A0.145 0.145 0 0 1 -0.96 -6.768z"/></svg>