<svg width="1200pt" height="1200pt" version="1.1" viewBox="-3 -3 1206 1206" xmlns="http://www.w3.org/2000/svg"><g id="deeditor_bgCarrier" stroke-width="0">
  <rect id="dee_c_e" x="-3" y="-3" width="1206" height="1206" rx="38.4" fill="#000000" strokewidth="0"/>
</g>
 <path d="m647.95 0.22656h53.781c30.91 7.2461 60.289 18.168 87.43 35.004 47.652 29.566 87.07 68.059 121.3 112.02 52.055 66.855 90.023 140.97 113.23 222.56 1.6758 5.8789 2.2852 12.684 10.02 14.375 20.523 4.4961 33.805 18.312 44.953 34.887 2.6172 3.9023 5.0703 7.6016 10.543 8.2461 40.621 4.7969 68.227 28.688 84.977 63.785 34.648 72.566 34.695 146.38-1.4883 218.36-25.57 50.863-66.488 68.32-122.11 56.301-5.832-1.2617-8.793 0.39453-10.66 5.6992-1.6758 4.7695-3.5938 9.4727-5.6641 14.098-21.094 47.035-52.125 83.953-103.12 100.09-8.6367 2.7266-9.8164 8.6602-9.8047 16.207 0.09375 36.637 0.082031 73.258-0.035157 109.88-0.023437 6.2109-0.22656 12.516-1.3203 18.609-2.0938 11.578-10.816 18.395-22.227 18.238-10.875-0.15625-19.512-6.7578-21.355-17.824-1.3438-8.0078-0.96484-16.289-1.5586-24.426-0.41797-5.7578 1.5234-11.957-2.5469-18.789-19.336 28.77-42.988 51.043-70.664 69.141-25.949 16.98-53.898 29.664-83.527 38.574-8.0195 2.4141-11.672 6.5195-11.043 15.039 0.52344 6.9727 0.27344 14.027-0.011719 21.035-0.59375 14.621-10.008 24.605-22.82 24.559-12.352-0.046875-21.691-9.6953-22.797-23.547-1.7852-22.43-1.7617-21.645-23.652-21.133-12.398 0.28516-16.301 4.832-15.934 16.754 0.51172 16.707 0.51172 33.555-1.0117 50.176-1.4766 15.957-16.848 24.477-30.805 18.5-10.328-4.4258-13.887-13.242-14.113-23.605-0.36719-16.359-0.25-32.719-0.42969-49.082-0.046875-5.1523-0.20312-11.805-6.7812-11.566-10.246 0.36719-20.586-6.4961-30.484-0.011719-1.5938 1.0352-1.5703 4.9727-1.7734 7.6133-0.42969 5.4375 0.082032 10.992-0.84375 16.312-2.0703 11.875-11.672 19.812-22.75 19.562-11.648-0.26172-20.941-9.125-22.07-21.605-0.52344-5.793-0.98828-11.805-0.10547-17.504 2.1406-13.91-4.0938-19.535-17.086-23.715-58.91-18.93-109.58-50.188-145.77-101.91-0.85547-1.2383-1.8555-2.6289-4.0469-1.3906-1.9531 5.8672-0.69141 12.137-1 18.301-0.30859 6.2227-0.035156 12.504-0.77344 18.668-1.6758 14.113-10.066 21.965-22.668 21.867-12.516-0.082031-20.738-8.0547-22.391-22.238-0.64062-5.4023-0.61719-10.887-0.62891-16.336-0.058594-35.848-0.23828-71.699 0.082032-107.55 0.082031-9.543-2.9258-14.883-12.625-17.801-24.012-7.2109-44.105-21.047-61.441-39.086-19.5-20.309-33.16-44.203-43.035-70.281-3.2109-8.4727-6.3555-11.387-16.074-8.4102-28.094 8.5898-54.695 3.8672-79.102-12.516-19.301-12.957-32.625-30.922-43.07-51.375-11.125-21.797-16.062-45.391-20.82-69.082v-70.152c1.332-6.4727 2.6523-12.945 4.0078-19.406 5.5938-26.605 15.16-51.52 31.59-73.438 17.266-23.035 39.359-38.824 68.309-43 7.3906-1.0703 11.863-4.0078 15.789-9.9961 9.5664-14.609 21.203-27.52 38.73-31.996 9.4961-2.4258 13.125-7.6875 15.527-16.324 20.703-74.328 53.945-142.79 99.816-204.68 57.188-77.129 123.81-142.37 221.96-164.69h53.781c14.621 3.9609 29.473 7.1992 43.465 13.207 3.7969 1.6289 7.4844 1.6172 11.281-0.011719 13.988-6.0078 28.824-9.2578 43.461-13.195zm232.74 803.54c24.988 0.26172 41.336-7.4375 53.84-22.25 8.3633-9.9102 14.672-21.059 19.586-33.031 5.3555-13.051 5.0938-13.648-8.1875-18.215-22.441-7.7227-22.441-7.7227-33.445 12.684-12.754 23.652-26.199 26.688-47.949 10.469-16.109-12.016-28.461-27.496-39.895-43.879-36.672-52.555-84.359-91.438-144.72-113.66-36.098-13.301-72.938-21.406-112.04-13.824-79.113 15.336-141.76 56.066-189.61 120.33-12.09 16.23-23.297 33.137-38.98 46.391-27.043 22.867-43.215 19.773-57.23-12.434-4.6992-10.793-9.4102-13.848-21.012-9.543-24.523 9.0898-24.762 8.4492-13.016 31.723 24.844 49.223 64.809 58.969 109.37 26.367 19.086-13.957 34.004-31.887 47.426-51.199 32.684-47.059 75.09-81.918 129.32-101.42 30.77-11.066 61.988-17.098 95.008-9.6484 69.059 15.598 122.92 53.148 163.27 110.71 14.637 20.883 30.77 40.227 51.898 54.852 13.051 9 27.125 15.332 36.359 15.582zm250.72-204.95c0.64062-25.285-3.8906-49.484-14.074-72.723-4.1406-9.4219-9.2461-12.125-18.965-7.1641-14.992 7.6523-26.902 18.359-36.324 32.113-13.91 20.309-20.098 43.488-26.332 66.93-7.2578 27.27 1.7031 50.008 17.465 70.734 15.906 20.906 37.672 20.359 53.77-0.35547 4.2578-5.4727 7.9141-11.625 10.793-17.941 10.395-22.703 14.262-46.75 13.668-71.594zm-1065.1 0.84375c-0.36719 11.352 0.33203 23.355 2.6641 35.254 4.0078 20.43 9.8867 40.156 23.926 56.242 11.34 12.969 25.785 16.109 38.719 9.1133 16.168-8.7344 35.945-45.547 33.328-63.918-3.4727-24.32-9.1992-48.164-20.465-70.27-9.7344-19.109-22.691-35.375-42.168-45.453-14.195-7.3398-16.562-6.6172-22.891 7.7578-9.8789 22.457-13.816 46.086-13.113 71.273zm389.63-126.7c-6.0078 0-11.516 1.9141-16.68 4.6875-38.348 20.656-67.727 50.34-88.617 88.477-2.0234 3.6992-3.3203 7.8867-4.4023 11.992-3.4727 13.195 2.5 19.691 15.777 17.156 3.4023-0.64062 6.8516-1.7383 9.9102-3.3203 40.895-21.227 72.09-52.199 92.926-93.379 1.7383-3.4258 2.7852-7.2812 3.5586-11.066 1.9727-9.7188-2.418-14.715-12.473-14.547zm287.33-0.070312c-9.9336-0.35547-13.254 3.1523-12.789 13.312 0.27344 6.0195 2.5117 11.445 5.293 16.539 20.273 37.145 48.973 66.082 85.977 86.512 8.5898 4.7461 19.465 11.742 27.984 3.25 8.8867-8.875 2.0234-20.098-2.9609-29.066-19.703-35.516-47.617-63.168-82.68-83.586-6.3789-3.7266-13.211-6.6641-20.824-6.9609z" fill="#ffffff"/>
</svg>