<?xml version="1.0" encoding="utf-8"?>
<!-- Svg Vector Icons : http://www.onlinewebfonts.com/icon -->
<!DOCTYPE svg PUBLIC "-//W3C//DTD SVG 1.1//EN" "http://www.w3.org/Graphics/SVG/1.1/DTD/svg11.dtd">
<svg version="1.1" xmlns="http://www.w3.org/2000/svg" xmlns:xlink="http://www.w3.org/1999/xlink" x="0px" y="0px" viewBox="0 0 256 256" enable-background="new 0 0 256 256" xml:space="preserve">
<metadata> Svg Vector Icons : http://www.onlinewebfonts.com/icon </metadata>
<g><g><g><g><path fill="#000000" d="M33.9,211.2h77.4l-25.7,8.4l6.3,7.7h20v15c8,8.7,16-0.2,16-0.2s8,8.8,16,0.2v-15h20l6.3-7.7l-25.7-8.3h77.4h2l-0.2-1.2c0.1-0.3,0.2-0.5,0.2-0.8v-28c0-1.1-0.9-2-2-2s-2,0.9-2,2v15.4c-6.4-6.2-26.5-25.8-31-31.4c-5.3-6.7-24.7-49.7-24.7-49.7l0.3-9.3l-20.3-14.7L144,81.1l16,5v-11l-21.5-21.7c0,0,1.5-32.4-10.5-43.4c-12,11-10.5,43.4-10.5,43.4L96,75v11l16-5l-0.3,10.3L91.3,106l0.3,9.3c0,0-19.3,43-24.7,49.7c-4.5,5.6-24.6,25.2-31,31.4v-15.4c0-1.1-0.9-2-2-2c-1.1,0-2,0.9-2,2v28.1c0,0.3,0.1,0.6,0.2,0.8l-0.2,1.2H33.9L33.9,211.2z"/></g></g><g></g><g></g><g></g><g></g><g></g><g></g><g></g><g></g><g></g><g></g><g></g><g></g><g></g><g></g><g></g></g></g>
</svg>