<?xml version="1.0" encoding="iso-8859-1"?>
<!-- Uploaded to: SVG Repo, www.svgrepo.com, Generator: SVG Repo Mixer Tools -->
<svg fill="#000000" height="800px" width="800px" version="1.1" id="Layer_1" xmlns="http://www.w3.org/2000/svg" xmlns:xlink="http://www.w3.org/1999/xlink" 
	 viewBox="0 0 512 512" xml:space="preserve">
<g>
	<g>
		<path d="M511.562,285.261c0.109-0.578-0.415-1.165-0.415-1.761v-47.328c0-0.596,0.523-1.183,0.415-1.761
			c-0.039-0.208,0.191-0.402,0.139-0.606c-0.093-0.358-0.045-0.709-0.179-1.054c-0.088-0.226-0.115-0.439-0.22-0.656
			c-0.146-0.303-0.267-0.598-0.445-0.887c-0.128-0.206-0.241-0.407-0.385-0.601c-0.083-0.115-0.137-0.24-0.226-0.351l-37.858-46.88
			c-1.793-2.246-4.511-3.101-7.386-3.101H353.644c-22.544-30.763-57.578-47.328-96.887-47.328s-74.344,16.565-96.887,47.328H48.512
			c-2.875,0-5.597,0.855-7.39,3.101L3.259,230.48c-0.088,0.111-0.151,0.125-0.235,0.238c-0.143,0.196-0.276,0.34-0.403,0.548
			c-0.178,0.289-0.336,0.554-0.482,0.859c-0.104,0.215-0.206,0.414-0.293,0.64c-0.133,0.342-0.234,0.689-0.327,1.047
			c-0.053,0.203-0.709,0.395-0.749,0.603c-0.11,0.578-0.77,1.16-0.77,1.756V283.5c0,0.596,0.66,1.181,0.77,1.759
			c0.039,0.208,0.4,0.404,0.453,0.608c0.093,0.358,0.342,0.712,0.475,1.054c0.087,0.227,0.263,0.439,0.367,0.654
			c0.146,0.305,0.341,0.601,0.519,0.887c0.127,0.208,0.279,0.407,0.422,0.603c0.083,0.115,0.156,0.24,0.244,0.351l37.867,47.777
			c1.793,2.246,4.52,3.998,7.395,3.998h119.576c22.405,21.298,53.86,37.863,88.669,37.863c34.81,0,66.265-16.565,88.669-37.863
			h119.576c2.875,0,5.597-1.752,7.39-3.998l37.863-47.553c0.089-0.111,0.153-0.349,0.236-0.462c0.143-0.196,0.275-0.453,0.403-0.659
			c0.178-0.289,0.336-0.64,0.482-0.943c0.104-0.217,0.206-0.43,0.293-0.656c0.134-0.344,0.235-0.695,0.327-1.054
			C512.048,285.664,511.523,285.469,511.562,285.261z M460.454,199.206l22.718,28.397H376.467
			c-2.37-11.832-5.954-21.298-10.6-28.397H460.454z M53.06,199.206h94.588c-4.645,7.099-8.229,16.565-10.6,28.397H30.342
			L53.06,199.206z M18.931,246.534h115.172c-0.239,2.366-0.401,6.276-0.401,9.466c0,6.436,0.503,11.832,1.459,18.931H18.931V246.534
			z M53.06,322.26l-22.718-28.397h109.348c3.275,9.466,7.828,18.931,13.458,28.397H53.06z M256.757,359.226
			c-57.413,0-104.123-46.709-104.123-104.123c0-57.413,46.709-104.123,104.123-104.123s104.123,46.709,104.123,104.123
			C360.879,312.517,314.17,359.226,256.757,359.226z M460.454,322.26H360.366c5.632-9.466,10.184-18.931,13.459-28.397h109.346
			L460.454,322.26z M492.216,274.931H378.353c0.957-7.099,1.458-12.495,1.458-18.931c0-3.189-0.161-7.099-0.4-9.466h112.805V274.931
			z"/>
	</g>
</g>
<g>
	<g>
		<path d="M335.001,231.698c-1.114-3.42-4.077-5.916-7.645-6.434l-38.616-5.611l-17.272-34.997c-3.198-6.48-13.792-6.462-16.981,0
			l-17.268,34.997l-38.616,5.611c-3.568,0.518-6.531,3.014-7.645,6.434c-1.114,3.429-0.185,7.192,2.394,9.706l27.949,27.242
			l-6.6,38.464c-0.605,3.55,0.855,7.136,3.767,9.253c1.65,1.202,3.605,1.812,5.565,1.812c1.507,0,3.018-0.36,4.405-1.091
			l34.54-18.155l34.544,18.155c3.189,1.682,7.053,1.405,9.969-0.721c2.912-2.117,4.372-5.703,3.767-9.253l-6.595-38.464
			l27.944-27.242C335.186,238.89,336.115,235.127,335.001,231.698z M287.881,258.57c-2.228,2.172-3.245,5.306-2.722,8.375
			l4.197,24.459l-21.973-11.546c-1.377-0.73-2.893-1.091-4.405-1.091s-3.027,0.36-4.405,1.091l-21.968,11.546l4.197-24.459
			c0.522-3.069-0.495-6.203-2.722-8.375l-17.776-17.332l24.561-3.568c3.083-0.444,5.75-2.385,7.132-5.177l10.982-22.259
			l10.991,22.259c1.378,2.792,4.044,4.733,7.127,5.177l24.561,3.568L287.881,258.57z"/>
	</g>
</g>
</svg>