<?xml version="1.0" encoding="utf-8"?>
<!-- Uploaded to: SVG Repo, www.svgrepo.com, Generator: SVG Repo Mixer Tools -->
<svg fill="#000000" width="800px" height="800px" viewBox="0 0 32 32" version="1.1" xmlns="http://www.w3.org/2000/svg">
<title>cycle</title>
<path d="M12.953 28.484l-1.584-10.589-3.182 4.301c-2.75-3.393-2.978-8.339-0.26-12.013 2.577-3.483 7.020-4.769 10.926-3.499l-0.548-3.665 4.493-0.672c-6.567-3.368-14.795-1.588-19.328 4.539-4.545 6.144-3.823 14.56 1.356 19.852l-2.463 3.329 10.589-1.584zM26.941 5.445l2.58-3.487-10.589 1.583 1.584 10.589 3.056-4.131c2.633 3.388 2.814 8.239 0.137 11.858-2.534 3.426-6.875 4.726-10.732 3.559l0.525 3.511-4.762 0.712c6.581 3.425 14.858 1.657 19.41-4.496 4.502-6.085 3.836-14.399-1.208-19.699z"></path>
</svg>