<?xml version="1.0" encoding="utf-8"?>
<!-- Uploaded to: SVG Repo, www.svgrepo.com, Generator: SVG Repo Mixer Tools -->
<svg fill="#000000" width="800px" height="800px" viewBox="0 0 32 32" version="1.1" xmlns="http://www.w3.org/2000/svg">
<title>honeycomb</title>
<path d="M10.262 18.021l-2.19-3.759 2.19-3.759h4.38l2.19 3.759-2.19 3.759h-4.38zM17.299 14.203l-2.19-3.759 2.19-3.759h4.38l2.19 3.759-2.19 3.759h-4.38zM3.071 13.992l-2.19-3.759 2.19-3.759h4.38l2.19 3.759-2.19 3.759h-4.38zM10.159 9.904l-2.19-3.759 2.19-3.759h4.38l2.19 3.759-2.19 3.759h-4.38zM17.247 30.235l-2.19-3.759 2.19-3.759h4.38l2.19 3.759-2.19 3.759h-4.38zM24.155 26.161l-2.19-3.759 2.19-3.759h4.38l2.19 3.759-2.19 3.759h-4.38zM10.262 26.058l-2.19-3.759 2.19-3.759h4.38l2.19 3.759-2.19 3.759h-4.38zM17.247 22.143l-2.19-3.759 2.19-3.759h4.38l2.19 3.759-2.19 3.759h-4.38zM3.28 22.134l-2.19-3.759 2.19-3.759h4.38l2.19 3.759-2.19 3.759h-4.38zM24.312 10.129l-2.19-3.759 2.19-3.759h4.38l2.19 3.759-2.19 3.759h-4.38z"></path>
</svg>