<?xml version="1.0" encoding="utf-8"?>
<!-- Uploaded to: SVG Repo, www.svgrepo.com, Generator: SVG Repo Mixer Tools -->
<svg fill="#000000" width="800px" height="800px" viewBox="0 0 32 32" version="1.1" xmlns="http://www.w3.org/2000/svg">
<title>laser-blast</title>
<path d="M30.886 30.947l-0-0-0-1.524-10.596-10.676c-0.444-1.113-0.594-2.030-0.712-2.865 0.385 0.13 0.828 0.043 1.135-0.264 0.431-0.431 0.431-1.131-0-1.562-0.408-0.409-1.057-0.429-1.491-0.064-0.241-0.793-0.67-1.593-1.572-2.521-0.943-0.97-2.353-1.265-3.71-0.913l1.306-1.306-2.344-2.344 1.22-1.22-3.112-3.112-1.22 1.22-3.217-3.217h-5.94v6.304l3.035 3.035-1.192 1.192 3.112 3.112 1.192-1.192 2.344 2.344 4.815-4.815c1.107-0.085 2.242 0.295 3.089 1.142 1.539 1.539 1.539 4.035 0 5.575-0.944 0.945-2.249 1.309-3.471 1.094-0.065-0.232-0.188-0.45-0.37-0.633-0.427-0.427-1.053-0.532-1.578-0.316-0.052-0.047-0.103-0.095-0.153-0.145-0.792-0.792-1.175-1.837-1.152-2.875-0.25 1.225 0.010 2.47 0.809 3.359-0.545 0.568-0.538 1.471 0.021 2.031 0.567 0.567 1.486 0.567 2.052 0 0.128-0.128 0.226-0.273 0.296-0.428 1.523 0.514 3.015 0.204 5.192 0.969l1.431 1.441c-0.406 0.433-0.399 1.113 0.024 1.536 0.421 0.421 1.096 0.43 1.53 0.029l7.553 7.61h1.674zM13.594 21.174c-0.336 0.336-0.336 0.88 0 1.216s0.88 0.336 1.216 0c0.336-0.336 0.336-0.88-0-1.216s-0.88-0.336-1.216-0zM21.822 12.092c0.606-0.606 0.606-1.589-0-2.196s-1.589-0.606-2.195-0c-0.606 0.606-0.606 1.589 0 2.196s1.589 0.606 2.195 0zM21.673 17.83c0.336 0.336 0.88 0.336 1.216 0s0.336-0.88-0-1.216c-0.336-0.336-0.88-0.336-1.216-0s-0.336 0.88 0 1.216z"></path>
</svg>