<?xml version="1.0" encoding="iso-8859-1"?>
<!-- Uploaded to: SVG Repo, www.svgrepo.com, Generator: SVG Repo Mixer Tools -->
<svg fill="#FFFFFF" height="800px" width="800px" version="1.1" id="Layer_1" xmlns="http://www.w3.org/2000/svg" xmlns:xlink="http://www.w3.org/1999/xlink" 
	 viewBox="0 0 512 512" xml:space="preserve">
<g>
	<g>
		<path d="M510.022,250.331l-42.667-50.796c-1.621-1.942-4.021-2.662-6.554-2.662H349.867c-0.149,0-0.288-0.369-0.434-0.36
			c-19.736-30.784-54.227-51.446-93.433-51.446c-39.204,0-73.696,20.763-93.432,51.546c-0.148-0.006-0.286,0.26-0.435,0.26H51.199
			c-2.533,0-4.933,0.721-6.554,2.662L1.978,250.533c-2.637,3.167-2.637,7.665,0,10.833l42.667,51.552
			c1.621,1.942,4.021,3.421,6.554,3.421h110.934c0.149,0,0.288-0.44,0.435-0.448c19.736,30.784,54.227,51.042,93.432,51.042
			c39.205,0,73.697-20.156,93.433-50.94c0.147,0.006,0.285,0.346,0.434,0.346h110.934c2.533,0,4.933-1.529,6.554-3.471
			l42.667-51.402C512.659,258.3,512.659,253.498,510.022,250.331z M55.195,299.273L26.752,265.14h118.675
			c0.919,10.667,3.732,23.467,8.185,34.133H55.195z M145.428,248.073H26.752l28.443-34.133h98.417
			C149.16,224.606,146.346,235.273,145.428,248.073z M256,349.665c-51.758,0-93.867-42.109-93.867-93.867
			s42.109-93.867,93.867-93.867s93.867,42.109,93.867,93.867S307.758,349.665,256,349.665z M456.805,299.273h-98.416
			c4.452-10.667,7.266-23.467,8.185-34.133h118.675L456.805,299.273z M366.573,248.073c-0.919-12.8-3.732-23.467-8.185-34.133
			h98.416l28.444,34.133H366.573z"/>
	</g>
</g>
<g>
	<g>
		<path d="M65.791,224.131c-2.392-2.391-6.229-3.075-9.304-1.792c-1.108,0.425-2.046,1.017-2.812,1.792
			c-1.538,1.617-2.475,3.833-2.475,6.058c0,2.3,0.85,4.433,2.475,6.058c0.85,0.767,1.792,1.367,2.812,1.792
			c1.025,0.425,2.133,0.683,3.246,0.683c2.304,0,4.438-0.858,6.058-2.475c1.621-1.625,2.475-3.758,2.475-6.058
			C68.266,227.964,67.324,225.748,65.791,224.131z"/>
	</g>
</g>
<g>
	<g>
		<path d="M99.924,224.131c-3.246-3.158-8.875-3.158-12.117,0c-1.537,1.617-2.475,3.833-2.475,6.058c0,2.3,0.85,4.433,2.475,6.058
			c0.85,0.767,1.792,1.367,2.812,1.792c1.025,0.425,2.133,0.683,3.246,0.683c2.304,0,4.438-0.858,6.058-2.475
			c1.621-1.625,2.475-3.758,2.475-6.058C102.399,227.964,101.458,225.748,99.924,224.131z"/>
	</g>
</g>
<g>
	<g>
		<path d="M134.058,224.131c-2.392-2.391-6.229-3.075-9.304-1.792c-1.108,0.425-2.046,1.017-2.812,1.792
			c-1.537,1.617-2.475,3.833-2.475,6.058c0,2.3,0.85,4.433,2.475,6.058c0.85,0.767,1.792,1.367,2.812,1.792
			c1.025,0.425,2.133,0.683,3.246,0.683c2.304,0,4.438-0.858,6.058-2.475c1.621-1.625,2.475-3.758,2.475-6.058
			C136.533,227.964,135.591,225.748,134.058,224.131z"/>
	</g>
</g>
<g>
	<g>
		<path d="M67.583,278.148c-0.429-1.025-1.025-1.967-1.792-2.817c-0.854-0.775-1.708-1.367-2.817-1.792
			c-3.071-1.283-6.912-0.6-9.3,1.792c-1.538,1.617-2.475,3.833-2.475,6.058c0,2.3,0.85,4.433,2.475,6.058
			c1.621,1.617,3.754,2.475,6.058,2.475c2.304,0,4.438-0.858,6.058-2.475c1.621-1.625,2.475-3.758,2.475-6.058
			C68.266,280.281,68.008,279.165,67.583,278.148z"/>
	</g>
</g>
<g>
	<g>
		<path d="M101.716,278.148c-0.429-1.025-1.025-1.967-1.792-2.817c-3.158-3.158-8.962-3.158-12.117,0
			c-0.771,0.85-1.367,1.792-1.796,2.817c-0.425,1.017-0.679,2.133-0.679,3.242c0,2.3,0.85,4.433,2.475,6.058
			c1.621,1.617,3.754,2.475,6.058,2.475c2.304,0,4.438-0.858,6.058-2.475c1.621-1.625,2.475-3.758,2.475-6.058
			C102.399,280.281,102.141,279.165,101.716,278.148z"/>
	</g>
</g>
<g>
	<g>
		<path d="M135.85,278.148c-0.429-1.025-1.025-1.967-1.792-2.817c-0.854-0.775-1.792-1.367-2.817-1.792
			c-3.158-1.283-6.912-0.6-9.3,1.792c-1.538,1.617-2.475,3.833-2.475,6.058c0,2.3,0.85,4.433,2.475,6.058
			c1.621,1.617,3.754,2.475,6.058,2.475c2.304,0,4.438-0.858,6.058-2.475c1.621-1.625,2.475-3.758,2.475-6.058
			C136.533,280.281,136.274,279.165,135.85,278.148z"/>
	</g>
</g>
<g>
	<g>
		<path d="M390.059,224.131c-0.854-0.775-1.792-1.367-2.817-1.792c-3.158-1.367-6.912-0.517-9.3,1.792
			c-1.537,1.617-2.475,3.833-2.475,6.058c0,2.3,0.85,4.433,2.475,6.058c0.85,0.767,1.792,1.367,2.812,1.792
			c1.025,0.425,2.133,0.683,3.246,0.683c1.108,0,2.217-0.258,3.242-0.683c1.025-0.425,1.963-1.025,2.817-1.792
			c1.621-1.625,2.475-3.758,2.475-6.058C392.534,227.964,391.592,225.748,390.059,224.131z"/>
	</g>
</g>
<g>
	<g>
		<path d="M424.192,224.131c-3.246-3.158-8.962-3.158-12.117,0c-1.537,1.617-2.475,3.833-2.475,6.058c0,2.3,0.85,4.433,2.475,6.058
			c0.85,0.767,1.792,1.367,2.812,1.792c1.025,0.425,2.133,0.683,3.246,0.683c2.304,0,4.438-0.858,6.058-2.475
			c1.621-1.625,2.475-3.758,2.475-6.058C426.667,227.964,425.726,225.748,424.192,224.131z"/>
	</g>
</g>
<g>
	<g>
		<path d="M460.117,226.948c-0.429-1.025-1.025-1.967-1.792-2.817c-3.158-3.158-8.875-3.158-12.117,0
			c-1.538,1.617-2.475,3.833-2.475,6.058c0,2.3,0.85,4.433,2.475,6.058c0.85,0.767,1.792,1.367,2.812,1.792
			c1.025,0.425,2.133,0.683,3.246,0.683c1.108,0,2.217-0.258,3.242-0.683c1.025-0.425,1.963-1.025,2.817-1.792
			c0.767-0.858,1.363-1.792,1.792-2.817c0.512-1.025,0.683-2.133,0.683-3.242S460.63,227.964,460.117,226.948z"/>
	</g>
</g>
<g>
	<g>
		<path d="M390.059,275.331c-0.771-0.775-1.708-1.367-2.817-1.792c-3.158-1.367-6.912-0.6-9.3,1.792
			c-1.537,1.617-2.475,3.833-2.475,6.058c0,2.3,0.85,4.433,2.475,6.058c1.621,1.617,3.754,2.475,6.058,2.475
			s4.438-0.858,6.058-2.475c1.621-1.625,2.475-3.758,2.475-6.058C392.534,279.165,391.592,276.948,390.059,275.331z"/>
	</g>
</g>
<g>
	<g>
		<path d="M425.984,278.148c-0.429-1.025-1.025-1.967-1.792-2.817c-3.158-3.158-8.962-3.158-12.117,0
			c-0.771,0.85-1.367,1.792-1.796,2.817c-0.425,1.017-0.679,2.133-0.679,3.242c0,2.3,0.85,4.433,2.475,6.058
			c1.621,1.617,3.754,2.475,6.058,2.475c2.304,0,4.438-0.858,6.058-2.475c1.621-1.625,2.475-3.758,2.475-6.058
			C426.667,280.281,426.409,279.165,425.984,278.148z"/>
	</g>
</g>
<g>
	<g>
		<path d="M460.117,278.148c-0.429-1.025-1.025-1.967-1.792-2.817c-0.854-0.775-1.708-1.367-2.817-1.792
			c-3.071-1.283-6.912-0.6-9.3,1.792c-1.538,1.617-2.475,3.833-2.475,6.058c0,2.3,0.85,4.433,2.475,6.058
			c1.621,1.617,3.754,2.475,6.058,2.475s4.438-0.858,6.058-2.475c1.621-1.625,2.475-3.758,2.475-6.058
			C460.801,280.281,460.542,279.165,460.117,278.148z"/>
	</g>
</g>
</svg>