<?xml version="1.0" encoding="utf-8"?>

<!DOCTYPE svg PUBLIC "-//W3C//DTD SVG 1.1//EN" "http://www.w3.org/Graphics/SVG/1.1/DTD/svg11.dtd">
<!-- Uploaded to: SVG Repo, www.svgrepo.com, Generator: SVG Repo Mixer Tools -->
<svg version="1.1" id="_x32_" xmlns="http://www.w3.org/2000/svg" xmlns:xlink="http://www.w3.org/1999/xlink" 
	 width="800px" height="800px" viewBox="0 0 512 512"  xml:space="preserve">
<style type="text/css">
<![CDATA[
	.st0{fill:#000000;}
]]>
</style>
<g>
	<path class="st0" d="M224.094,165.203c0-17.078,13.844-30.922,30.906-30.922s30.922,13.844,30.922,30.922
		c0,17.063-13.859,30.906-30.922,30.906S224.094,182.266,224.094,165.203z"/>
	<path class="st0" d="M233.078,340.219v85.344c0,36.25-27.109,86.438-77.922,86.438c-8.844,0-16.078-7.25-16.078-16.094
		s7.234-16.063,16.078-16.063c31.938,0,45.75-35.953,45.75-54.281v-97.078C209.844,333.547,220.375,337.813,233.078,340.219z"/>
	<path class="st0" d="M164.891,300.5v78.156c0,33.531-27.344,60.891-60.875,60.891c-33.547,0-60.797-27.359-60.797-60.891
		s27.25-60.781,60.797-60.781c8.922,0,16.078,7.156,16.078,16.078c0,8.844-7.156,16.078-16.078,16.078
		c-15.766,0-28.641,12.875-28.641,28.625c0,15.844,12.875,28.719,28.641,28.719c15.828,0,28.703-12.875,28.703-28.719v-76.063
		c1.453-0.563,2.969-1.219,4.5-1.938c9.172-4.188,14.563-5.063,17.453-5.063C157.656,295.594,160.219,296.813,164.891,300.5z"/>
	<path class="st0" d="M372.938,495.906c0,8.844-7.25,16.094-16.094,16.094c-50.813,0-77.922-50.188-77.922-86.438v-85.75
		c12.781-2.641,23.313-7.219,32.172-12.531v98.281c0,18.328,13.828,54.281,45.75,54.281
		C365.688,479.844,372.938,487.063,372.938,495.906z"/>
	<path class="st0" d="M468.781,378.656c0,33.531-27.25,60.891-60.781,60.891s-60.891-27.359-60.891-60.891v-79.609
		c3.469-2.578,5.703-3.453,8.203-3.453c2.906,0,8.281,0.875,17.453,5.063c2.172,0.969,4.344,1.938,6.516,2.734v75.266
		c0,15.844,12.875,28.719,28.719,28.719c15.75,0,28.625-12.875,28.625-28.719c0-15.75-12.875-28.625-28.625-28.625
		c-8.938,0-16.094-7.234-16.094-16.078c0-8.922,7.156-16.078,16.094-16.078C441.531,317.875,468.781,345.125,468.781,378.656z"/>
	<path class="st0" d="M445.781,250.75c-35.219-44.719-38.375-21.281-38.375-97.625C407.406,76.813,351.813,0,255,0
		c-96.781,0-152.406,76.813-152.406,153.125c0,76.344-3.156,52.906-38.375,97.625c-21.313,27.063,15.063,56.953,59.703,36.719
		c68.203-30.938,62.875,38.656,131.078,38.656c68.219,0,62.891-69.594,131.094-38.656
		C430.719,307.703,467.094,277.813,445.781,250.75z M255,232.344c-39.438,0-71.391-31.969-71.391-71.406S215.563,89.531,255,89.531
		s71.422,31.969,71.422,71.406S294.438,232.344,255,232.344z"/>
</g>
</svg>