<?xml version="1.0" encoding="utf-8"?>
<!-- Svg Vector Icons : http://www.onlinewebfonts.com/icon -->
<!DOCTYPE svg PUBLIC "-//W3C//DTD SVG 1.1//EN" "http://www.w3.org/Graphics/SVG/1.1/DTD/svg11.dtd">
<svg version="1.1" xmlns="http://www.w3.org/2000/svg" xmlns:xlink="http://www.w3.org/1999/xlink" x="0px" y="0px" viewBox="0 0 256 256" enable-background="new 0 0 256 256" xml:space="preserve">
<metadata> Svg Vector Icons : http://www.onlinewebfonts.com/icon </metadata>
<g><g><path fill="#000000" d="M243,182.9l-15.8-15.7c0.4-4.2,0.6-7.4,0.6-8.7c0-17.4-6.8-30.4-15.9-30.4c-5.3,0-9.7,4.4-12.6,11.4L169,109.6c0.1-0.8,0.1-1.6,0.1-2.4c0-14.3-7.2-26.9-18.1-34.4c-0.7-3.3-1.4-6.3-2-8.7c-3.7-15.9-7.6-30.9-11-42.3c-5.7-19-7.3-19.9-10-19.9c-2.7,0-4.6,1-10.3,19.9c-3.4,11.2-7.3,26.3-11,42.4c-0.7,3-1.3,6-2,8.9C94,80.5,86.9,93,86.9,107.2c0,0.8,0,1.6,0.1,2.4l-30.3,30c-2.9-7.1-7.3-11.4-12.6-11.4c-9.1,0-15.9,13.1-15.9,30.4c0,1.3,0.2,4.5,0.6,8.7l-15.8,15.7c-1.4,1.4-2.9,4-2.9,6.3c0,2.9,2.5,5.3,5.8,5.3l17.8-0.7c2.4,8,5.8,14.2,10.6,14.2c4.9,0,8.4-6.6,10.8-15.1l35.5-1.4c2.1,4.8,5,9.1,8.7,12.8v9.2l-15.7,14.7c-1.3,1.2-2,3.2-1.8,5l2.6,17.6c0.3,2.1,1.9,3.5,3.9,3.5c0.9,0,1.8-0.3,2.5-0.8l21.1-15.6c0.1-0.1,0.4-0.2,0.5-0.2l31.3-0.1c0.1,0,0.4,0.1,0.5,0.1l21.4,15.6c0.7,0.6,1.6,0.8,2.5,0.8c2,0,3.6-1.5,3.9-3.5l2.6-17.6c0.3-1.8-0.4-3.7-1.8-5l-15.9-14.9v-9c3.6-3.6,6.6-8,8.7-12.8l35.5,1.5c2.4,8.4,5.9,15.1,10.8,15.1c4.7,0,8.1-6.2,10.6-14.2l17.5,0.7h0.3c3.2,0,5.8-2.3,5.8-5.3C246,186.9,244.5,184.4,243,182.9z M138.3,82.2H118c-3.2,0-2.8-2.7-2.4-4.1c4.6-22.8,8.9-42.6,12.4-42.6c3.7,0,7.6,19.7,12.2,42.4C140.5,79.4,141.4,82.2,138.3,82.2z"/><g></g><g></g><g></g><g></g><g></g><g></g><g></g><g></g><g></g><g></g><g></g><g></g><g></g><g></g><g></g></g></g>
</svg>