<?xml version="1.0" encoding="iso-8859-1"?>
<!-- Generator: Adobe Illustrator 17.1.0, SVG Export Plug-In . SVG Version: 6.00 Build 0)  -->
<!DOCTYPE svg PUBLIC "-//W3C//DTD SVG 1.1//EN" "http://www.w3.org/Graphics/SVG/1.1/DTD/svg11.dtd">
<svg version="1.1" id="Capa_1" xmlns="http://www.w3.org/2000/svg" xmlns:xlink="http://www.w3.org/1999/xlink" x="0px" y="0px"
	 viewBox="0 0 214.405 214.405" style="enable-background:new 0 0 214.405 214.405;" xml:space="preserve">
<path d="M212.208,145.032c-2.93-2.928-7.678-2.928-10.607,0l-16.015,16.015c-13.865-2.053-42.473-8.234-53.534-19.297
	c-10.96-10.96-3.63-28.446-1.736-32.44l66.192-66.192c6.953-6.953,6.953-18.268-0.001-25.221c-3.368-3.368-7.847-5.223-12.609-5.223
	c-4.764,0-9.242,1.854-12.611,5.223l-66.194,66.194c-2.409,1.145-9.541,4.189-17.255,4.189c-6.229,0.001-11.195-1.938-15.183-5.927
	C61.617,71.318,55.422,42.69,53.36,28.817l16.014-16.013c2.929-2.93,2.929-7.678,0-10.607c-2.929-2.927-7.677-2.929-10.607,0
	L40.131,20.831c-0.002,0.002-0.003,0.003-0.005,0.004L22.448,38.513c-0.001,0.001-0.002,0.002-0.003,0.003L2.197,58.765
	c-2.929,2.93-2.929,7.678,0,10.607c1.465,1.464,3.384,2.196,5.304,2.196c1.919,0,3.839-0.732,5.304-2.196l3.405-3.405
	c-0.594,10.261,0.159,22.834,4.436,36.001c7.023,21.626,17.825,34.854,24.873,41.697l-8.307,8.307l-12.937,5.097
	c-2.353,0.927-4.079,2.976-4.594,5.45c-0.515,2.476,0.252,5.043,2.039,6.831l23.335,23.335c1.422,1.421,3.335,2.196,5.304,2.196
	c0.508,0,1.02-0.052,1.527-0.157c2.475-0.515,4.524-2.242,5.451-4.594l5.097-12.939l8.305-8.306
	c6.843,7.048,20.071,17.85,41.696,24.873c9.417,3.059,19.47,4.61,29.879,4.61c2.119,0,4.165-0.066,6.128-0.18l-3.409,3.409
	c-2.929,2.93-2.929,7.678,0,10.607c1.465,1.464,3.385,2.196,5.304,2.196s3.839-0.732,5.304-2.196l20.243-20.243
	c0.003-0.003,0.006-0.005,0.009-0.008l17.678-17.678c0.002-0.002,0.004-0.005,0.006-0.007l18.632-18.632
	C215.137,152.709,215.137,147.961,212.208,145.032z M157.365,46.432l15.792-15.792c2.93-2.928,7.678-2.928,10.607,0
	c2.929,2.93,2.929,7.678,0,10.607L167.973,57.04c-1.465,1.464-3.385,2.196-5.304,2.196s-3.839-0.732-5.304-2.196
	C154.437,54.11,154.437,49.362,157.365,46.432z"/>
<g>
</g>
<g>
</g>
<g>
</g>
<g>
</g>
<g>
</g>
<g>
</g>
<g>
</g>
<g>
</g>
<g>
</g>
<g>
</g>
<g>
</g>
<g>
</g>
<g>
</g>
<g>
</g>
<g>
</g>
</svg>
