<svg xmlns="http://www.w3.org/2000/svg"  viewBox="0 0 50 50" width="50px" height="50px"><path d="M 20.863281 1 C 20.007813 1 19.601563 1.421875 19.039063 1.898438 C 18.476563 2.371094 17.855469 3.003906 17.183594 3.761719 C 15.835938 5.277344 14.28125 7.292969 12.796875 9.394531 C 11.308594 11.496094 9.890625 13.679688 8.835938 15.535156 C 8.304688 16.464844 7.867188 17.308594 7.546875 18.039063 C 7.226563 18.769531 7 19.332031 7 20 C 7 21.210938 7.378906 22.335938 8.007813 23.28125 C 8.027344 23.605469 8.230469 27.453125 7.875 32.171875 C 7.5 37.097656 6.394531 42.738281 4.195313 45.359375 C 3.902344 45.679688 3.855469 46.15625 4.078125 46.53125 C 4.296875 46.90625 4.734375 47.09375 5.15625 47 L 24 47 C 24 47 23.996094 46.996094 23.996094 46.996094 L 26.003906 46.996094 C 26.003906 46.996094 26 47 26 47 L 44.84375 47 C 45.265625 47.09375 45.703125 46.90625 45.921875 46.53125 C 46.144531 46.15625 46.097656 45.679688 45.808594 45.359375 C 43.605469 42.738281 42.5 37.097656 42.125 32.171875 C 41.769531 27.453125 41.972656 23.605469 41.992188 23.28125 C 42.621094 22.335938 43 21.210938 43 20 C 43 19.332031 42.773438 18.769531 42.453125 18.039063 C 42.132813 17.308594 41.695313 16.464844 41.167969 15.535156 C 40.109375 13.679688 38.691406 11.496094 37.203125 9.394531 C 35.71875 7.292969 34.164063 5.277344 32.816406 3.761719 C 32.144531 3.003906 31.523438 2.371094 30.960938 1.898438 C 30.398438 1.421875 29.992188 1 29.136719 1 C 28.285156 1 27.585938 1.3125 26.894531 1.554688 C 26.203125 1.800781 25.542969 2 25 2 C 24.457031 2 23.796875 1.800781 23.105469 1.554688 C 22.414063 1.3125 21.714844 1 20.863281 1 Z M 20.960938 3.019531 C 21.238281 3.046875 21.777344 3.207031 22.4375 3.445313 C 23.160156 3.699219 24.019531 4 25 4 C 25.980469 4 26.839844 3.699219 27.5625 3.445313 C 28.222656 3.207031 28.761719 3.046875 29.039063 3.019531 C 29.0625 3.054688 29.351563 3.15625 29.671875 3.425781 C 30.113281 3.796875 30.683594 4.378906 31.320313 5.09375 C 32.589844 6.519531 34.117188 8.492188 35.574219 10.546875 C 37.027344 12.605469 38.417969 14.75 39.429688 16.527344 C 39.9375 17.414063 40.347656 18.210938 40.621094 18.839844 C 40.894531 19.464844 41 19.980469 41 20 C 41 21.875 39.683594 23.457031 37.925781 23.878906 C 37.972656 22.945313 38 21.992188 38 21 L 12 21 C 12 21.992188 12.027344 22.945313 12.074219 23.878906 C 10.316406 23.457031 9 21.875 9 20 C 9 19.980469 9.105469 19.464844 9.378906 18.839844 C 9.652344 18.210938 10.0625 17.414063 10.570313 16.527344 C 11.582031 14.75 12.972656 12.605469 14.425781 10.546875 C 15.882813 8.492188 17.410156 6.519531 18.679688 5.09375 C 19.316406 4.378906 19.886719 3.796875 20.328125 3.425781 C 20.648438 3.15625 20.9375 3.054688 20.960938 3.019531 Z M 27.886719 5.984375 C 27.816406 5.996094 27.746094 6.015625 27.683594 6.054688 C 26 7 24 7 22.449219 6.105469 C 22.148438 5.933594 21.777344 5.964844 21.484375 6.140625 C 16.941406 8.867188 12.984375 16.710938 12 19 L 38 19 C 37.015625 16.710938 33.058594 8.867188 28.515625 6.140625 C 28.328125 6.03125 28.097656 5.953125 27.886719 5.984375 Z M 25 12.996094 C 26.105469 12.996094 27 13.890625 27 14.996094 C 27 16.101563 26.105469 16.996094 25 16.996094 C 23.894531 16.996094 23 16.101563 23 14.996094 C 23 13.890625 23.894531 12.996094 25 12.996094 Z M 14.023438 22.136719 C 14.3125 22.414063 14.660156 22.671875 15.050781 22.910156 C 15.15625 23.835938 15.414063 24.816406 15.855469 25.699219 C 16.445313 26.875 17.5 28 19 28 C 20.167969 28 21.339844 27.726563 22.304688 27.082031 C 23.027344 26.605469 23.617188 25.863281 23.871094 24.960938 C 24.246094 24.976563 24.621094 24.996094 25 24.996094 C 25.730469 24.996094 26.457031 24.96875 27.175781 24.917969 C 27.691406 26.300781 29.335938 27 31 27 C 32.542969 27 33.484375 25.210938 33.839844 23.476563 C 34.707031 23.097656 35.4375 22.652344 35.976563 22.136719 C 35.921875 25.1875 35.65625 27.917969 35.195313 30.335938 L 33.019531 31.785156 L 26.582031 27.1875 C 26.414063 27.066406 26.207031 27 26 27 L 24 27 C 23.792969 27 23.585938 27.066406 23.417969 27.1875 L 16.980469 31.785156 L 14.804688 30.335938 C 14.34375 27.917969 14.078125 25.1875 14.023438 22.136719 Z M 17.308594 23.90625 C 18.636719 24.34375 20.175781 24.640625 21.800781 24.8125 C 21.667969 25.046875 21.46875 25.238281 21.195313 25.417969 C 20.660156 25.773438 19.832031 26 19 26 C 18.5 26 18.054688 25.625 17.644531 24.800781 C 17.507813 24.53125 17.402344 24.222656 17.308594 23.90625 Z M 24.320313 29 L 25.679688 29 L 32.417969 33.8125 C 32.757813 34.054688 33.207031 34.0625 33.554688 33.832031 L 34.53125 33.183594 C 34.152344 34.539063 33.699219 35.773438 33.195313 36.910156 L 26.582031 32.1875 C 26.414063 32.066406 26.207031 32 26 32 L 24 32 C 23.792969 32 23.585938 32.066406 23.417969 32.1875 L 16.800781 36.910156 C 16.300781 35.773438 15.847656 34.539063 15.46875 33.179688 L 16.445313 33.832031 C 16.792969 34.0625 17.242188 34.054688 17.582031 33.8125 Z M 24.320313 34 L 25.679688 34 L 32.296875 38.726563 C 31.480469 40.195313 30.550781 41.4375 29.542969 42.496094 L 27.554688 41.167969 C 27.390625 41.058594 27.199219 41 27 41 L 23 41 C 22.800781 41 22.609375 41.058594 22.445313 41.167969 L 20.453125 42.496094 C 19.445313 41.4375 18.519531 40.195313 17.703125 38.730469 Z M 21 38 C 20.640625 37.996094 20.304688 38.183594 20.121094 38.496094 C 19.941406 38.808594 19.941406 39.191406 20.121094 39.503906 C 20.304688 39.816406 20.640625 40.003906 21 40 L 29 40 C 29.359375 40.003906 29.695313 39.816406 29.878906 39.503906 C 30.058594 39.191406 30.058594 38.808594 29.878906 38.496094 C 29.695313 38.183594 29.359375 37.996094 29 38 Z M 23.300781 43 L 26.699219 43 L 28.035156 43.890625 C 27.535156 44.292969 27.023438 44.671875 26.492188 44.996094 L 23.503906 44.996094 C 22.976563 44.671875 22.464844 44.296875 21.964844 43.890625 Z"/></svg>