<?xml version="1.0" encoding="iso-8859-1"?>
<!-- Generator: Adobe Illustrator 19.0.0, SVG Export Plug-In . SVG Version: 6.00 Build 0)  -->
<svg version="1.1" id="Layer_1" xmlns="http://www.w3.org/2000/svg" xmlns:xlink="http://www.w3.org/1999/xlink" x="0px" y="0px"
	 viewBox="0 0 491.531 491.531" style="enable-background:new 0 0 491.531 491.531;" xml:space="preserve">
<g>
	<g>
		<g>
			<polygon points="265.647,388.443 245.76,348.159 225.895,388.443 184.32,392.846 213.607,426.249 206.664,471.039 
				245.76,448.695 284.857,471.039 277.935,426.249 307.2,392.846 			"/>
			<path d="M259.507,87.209l232.018,209.92v-71.844c0-5.775-2.437-11.284-6.697-15.155L259.548,5.33
				c-7.803-7.107-19.763-7.107-27.566,0L6.702,210.13c-4.26,3.871-6.697,9.38-6.697,15.155v71.844l232.018-209.92
				C239.825,80.143,251.704,80.143,259.507,87.209z"/>
			<path d="M245.767,130.024L0.007,352.376v28.611l231.956-211.784c7.762-7.107,19.661-7.148,27.505-0.102l232.059,208.855v-25.58
				L245.767,130.024z"/>
			<path d="M0.007,436.436v34.611c0,8.11,4.772,15.442,12.206,18.719c7.414,3.297,16.056,1.905,22.057-3.584l211.497-192.266
				l211.497,192.266c3.85,3.502,8.786,5.345,13.783,5.345c2.806,0,5.612-0.573,8.274-1.761c7.434-3.277,12.206-10.609,12.206-18.719
				v-37.99L245.869,211.955L0.007,436.436z"/>
		</g>
	</g>
</g>
<g>
</g>
<g>
</g>
<g>
</g>
<g>
</g>
<g>
</g>
<g>
</g>
<g>
</g>
<g>
</g>
<g>
</g>
<g>
</g>
<g>
</g>
<g>
</g>
<g>
</g>
<g>
</g>
<g>
</g>
</svg>
