<?xml version="1.0" encoding="utf-8"?>
<!-- Svg Vector Icons : http://www.onlinewebfonts.com/icon -->
<!DOCTYPE svg PUBLIC "-//W3C//DTD SVG 1.1//EN" "http://www.w3.org/Graphics/SVG/1.1/DTD/svg11.dtd">
<svg version="1.1" xmlns="http://www.w3.org/2000/svg" xmlns:xlink="http://www.w3.org/1999/xlink" x="0px" y="0px" viewBox="0 0 256 256" enable-background="new 0 0 256 256" xml:space="preserve">
<metadata> Svg Vector Icons : http://www.onlinewebfonts.com/icon </metadata>
<g><g><g><g><path fill="#000000" d="M163.4,199.2l-21.1,7.2c-0.3,0.1-0.6,0.3-0.8,0.5l-12.2,13.6h-2.5l-12.2-13.6c-0.2-0.2-0.5-0.4-0.8-0.5l-21.1-7.2c-0.8-0.3-1.7,0-2.2,0.7c-0.5,0.7-0.5,1.6,0.1,2.2l37.2,43.6c0.1,0.1,0.2,0.2,0.4,0.2c0.2,0,0.3-0.1,0.4-0.2l37.1-43.6c0.6-0.7,0.6-1.5,0.1-2.2C165.2,199.2,164.3,198.9,163.4,199.2z"/><path fill="#000000" d="M222.5,219.1c0-0.2,0-0.3,0-0.4c0-0.3,0-0.6,0-0.8c-0.7-18.6-1.5-37.3-2.2-55.9c-0.5-11.4-0.9-22.8-1.4-34.2c-0.4-8.4,1.6-25.1-11.1-24.5c-4.9,0.2-9.2,3.8-10.7,8.4c-0.7,2-3,20.6-1.4,21.1l-9-2.7c0.9-7.4,3-36.8-17.6-70.8c-12.2-19.9-38.7-48.3-38.9-48.6c-0.6-0.6-1.5-0.8-2.2-0.5c-0.7-0.3-1.6-0.2-2.2,0.5c-0.3,0.3-26.7,28.7-38.9,48.6c-20.7,34-18.6,63.5-17.6,70.9c0,0-9,2.7-9,2.7c1.7-0.5-0.7-19.1-1.4-21.1c-1.5-4.6-5.8-8.2-10.7-8.4c-12.6-0.5-10.7,16.1-11.1,24.5c-0.5,11.4-0.9,22.8-1.4,34.2c-0.7,18.6-1.5,37.3-2.2,55.9c0,0.3,0,0.6,0,0.8c0,0.1,0,0.2,0,0.4c-0.4,4.4,1.1,8.7,4.1,11.8c5.4,5.4,15,5.3,20.5-0.2c2.7-2.7,4-5.5,4.2-9.4c0-0.1,0-0.2,0-0.4l1.3-27.7c7.2-4.5,15-9.1,17.9-10.6c3.5,4.6,21.2,18.2,42.1,18.2h2c0.8,0,1.5,0,2.2,0c0.7,0,1.5,0,2.2,0h2c21,0,38.6-13.5,42.1-18.2c2.9,1.5,10.6,6.2,17.9,10.6l1.3,27.7c0,0.1,0,0.2,0,0.4c0.2,3.9,1.4,6.6,4.2,9.4c5.5,5.5,15.1,5.6,20.5,0.2C221.4,227.9,222.9,223.5,222.5,219.1z M147,132.8c-5.1,5.1-11.8,7.9-19,7.9s-13.9-2.8-19-7.9c-10.5-10.5-10.5-27.5,0-37.9c5.1-5.1,11.8-7.9,19-7.9s13.9,2.8,19,7.9C157.4,105.4,157.4,122.3,147,132.8z"/></g></g><g></g><g></g><g></g><g></g><g></g><g></g><g></g><g></g><g></g><g></g><g></g><g></g><g></g><g></g><g></g></g></g>
</svg>