<?xml version="1.0" encoding="utf-8"?>
<!-- Svg Vector Icons : http://www.onlinewebfonts.com/icon -->
<!DOCTYPE svg PUBLIC "-//W3C//DTD SVG 1.1//EN" "http://www.w3.org/Graphics/SVG/1.1/DTD/svg11.dtd">
<svg version="1.1" xmlns="http://www.w3.org/2000/svg" xmlns:xlink="http://www.w3.org/1999/xlink" x="0px" y="0px" viewBox="0 0 256 256" enable-background="new 0 0 256 256" xml:space="preserve">
<metadata> Svg Vector Icons : http://www.onlinewebfonts.com/icon </metadata>
<g><g><g><path fill="#000000" d="M159.6,145.1c10-8.7,20.4-18.5,31.2-29.3c18.5-18.5,30.8-34.9,39.1-49C209.5,62.4,193.5,46.2,189,26c-13.9,8.3-30.3,20.8-48.8,39.5c-10.8,10.8-20.6,21.2-29.3,31.2c-2.5,2.9-6.2,4.4-10,3.9l-27.2-3.1c-3.5-0.4-6.9,0.8-9.4,3.3l-52.6,52.6c-3.5,3.5-1.3,9.2,3.5,9.8l34.9,4c3.5,0.4,6.9-0.8,9.4-3.3L72,151.5c2.7-2.7,7.1-0.8,7.1,2.9c-0.2,6.4,1.9,11.9,6.6,16.4c4.6,4.6,10,6.5,16.4,6.4c3.7,0,5.6,4.4,2.9,7.1l-12.5,12.5c-2.5,2.5-3.7,6-3.3,9.4l4,34.9c0.6,4.8,6.4,6.9,9.8,3.5l52.6-52.6c2.5-2.5,3.7-6,3.3-9.4l-3.1-27.2C155.3,151.5,156.7,147.6,159.6,145.1z M142.4,132.6c-10.2,10.2-22.5,14.1-27.8,9.1c-5.2-5.2-1.2-17.5,9.1-27.8c10.2-10.2,22.5-14.1,27.8-9.1C156.7,109.8,152.4,122.6,142.4,132.6z"/><path fill="#000000" d="M207.2,16.7c1.2,17.1,14.8,30.8,31.8,32.2c10-24.5,6.4-38.2,6.4-38.2S232.2,6.1,207.2,16.7z"/></g><g></g><g></g><g></g><g></g><g></g><g></g><g></g><g></g><g></g><g></g><g></g><g></g><g></g><g></g><g></g></g></g>
</svg>