<?xml version="1.0" encoding="utf-8"?>
<!-- Svg Vector Icons : http://www.onlinewebfonts.com/icon -->
<!DOCTYPE svg PUBLIC "-//W3C//DTD SVG 1.1//EN" "http://www.w3.org/Graphics/SVG/1.1/DTD/svg11.dtd">
<svg version="1.1" xmlns="http://www.w3.org/2000/svg" xmlns:xlink="http://www.w3.org/1999/xlink" x="0px" y="0px" viewBox="0 0 256 256" enable-background="new 0 0 256 256" xml:space="preserve">
<metadata> Svg Vector Icons : http://www.onlinewebfonts.com/icon </metadata>
<g><g><path fill="#000000" d="M239.2,16.8c-4.4-4.4-10.3-6.8-16.5-6.8c-6.3,0-12.1,2.4-16.5,6.9l-34.3,34.3L148.6,51c-3.5,0-6.7,2.1-8.1,5.3c-1.4,3.3-0.6,7,1.9,9.5l7.4,7.4l-35.1,35.1l-54.4,10.6c-3.1,0.6-5.7,2.9-6.6,6s-0.1,6.4,2.2,8.6l6.6,6.6c-7.6,3.3-17.1,8.6-25.5,17c-17.1,17.1-23.8,43.9-24.1,45c-0.7,3,0.2,6.1,2.4,8.3c1.5,1.4,3.4,2.3,5.4,2.4l-9.9,20.8c-1.6,3.3-0.9,7.3,1.7,9.8c1.6,1.7,3.9,2.5,6.1,2.5c1.3,0,2.5-0.3,3.7-0.8l20.8-9.9c0.1,2,1,3.9,2.4,5.4c2.1,2.2,5.3,3.1,8.3,2.4c1.1-0.3,28-7,45-24.1c8.4-8.4,13.7-17.9,17-25.5l6.6,6.6c1.6,1.6,3.9,2.5,6.1,2.5c0.8,0,1.7-0.1,2.5-0.4c3.1-0.9,5.3-3.5,6-6.6l10.6-54.4l35.1-35.1l7.4,7.4c1.7,1.7,3.9,2.6,6.2,2.5c4.7,0,8.6-3.9,8.6-8.7c0-0.2,0-0.5,0-0.7l-0.2-22.5l34.3-34.3C248.3,40.8,248.3,26,239.2,16.8z M86.6,206.8c-6.4,6.4-14.9,11.1-22.2,14.3c0.5-3-0.6-6-3-8c-1.6-1.3-3.6-2-5.6-2c-1.3,0-2.5,0.3-3.7,0.8L36.9,219l7.2-15.3c1.4-3.1,1-6.7-1.2-9.3c-2-2.4-5.1-3.5-8.1-3c3.2-7.2,7.9-15.7,14.3-22.2c9.4-9.4,20.7-13.9,26.7-15.8l26.5,26.5C100.5,186.1,96,197.4,86.6,206.8z M130.3,138l-19.7,19.7c-1.7,1.7-3.9,2.5-6.1,2.5c-2.2,0-4.4-0.8-6.1-2.5c-3.4-3.4-3.4-8.9,0-12.2l19.7-19.7c3.4-3.4,8.9-3.4,12.2,0C133.6,129.1,133.6,134.6,130.3,138z"/><g></g><g></g><g></g><g></g><g></g><g></g><g></g><g></g><g></g><g></g><g></g><g></g><g></g><g></g><g></g></g></g>
</svg>