<?xml version="1.0" encoding="iso-8859-1"?>
<!-- Uploaded to: SVG Repo, www.svgrepo.com, Generator: SVG Repo Mixer Tools -->
<svg fill="#FFFFFF" height="800px" width="800px" version="1.1" id="Layer_1" xmlns="http://www.w3.org/2000/svg" xmlns:xlink="http://www.w3.org/1999/xlink" 
	 viewBox="0 0 511.999 511.999" xml:space="preserve">
<g>
	<g>
		<path d="M255.998,141.933c-28.577,0-51.827,23.25-51.827,51.827c0,28.577,23.25,51.827,51.827,51.827s51.827-23.25,51.827-51.827
			C307.825,165.182,284.576,141.933,255.998,141.933z M255.998,211.035c-9.526,0-17.276-7.75-17.276-17.276
			s7.75-17.276,17.276-17.276s17.276,7.75,17.276,17.276S265.524,211.035,255.998,211.035z"/>
	</g>
</g>
<g>
	<g>
		<path d="M422.999,300.627h-0.002l-54.999-43.999c5.123-23.462,8.93-47.819,8.93-68.414c0-103.419-106.569-178.285-111.106-181.421
			L255.998,0l-9.824,6.792c-4.537,3.136-111.106,78.003-111.106,181.421c0,20.596,3.808,44.953,8.93,68.414L89,300.626v109.686
			l77.206-51.47l-11.901,59.501h39.67c-2.907,10.103-4.239,22.182-1.032,34.978c5.898,23.533,24.824,42.294,56.251,55.763
			l6.805,2.916l6.805-2.916c31.427-13.468,50.353-32.23,56.251-55.763c3.208-12.796,1.874-24.875-1.032-34.978h39.67l-11.901-59.501
			l77.206,51.47V300.627z M123.551,345.754v-28.52l29.621-23.697c2.757,9.989,5.503,19.201,7.978,27.151L123.551,345.754z
			 M285.54,444.922c-2.78,11.09-12.705,20.917-29.54,29.27c-16.739-8.305-26.648-18.068-29.492-29.08
			c-2.636-10.203,1.126-20.389,4.45-26.768h50.064C284.309,424.685,288.068,434.835,285.54,444.922z M196.451,383.792l4.607-23.034
			h109.88l4.607,23.034H196.451z M312.75,326.207H199.242c-8.843-26.636-29.623-93.918-29.623-137.993
			c0.001-68.649,61.868-125.592,86.38-145.456c24.527,19.877,86.378,76.817,86.378,145.456
			C342.377,232.228,321.593,299.556,312.75,326.207z M388.445,345.754l-37.599-25.066c2.474-7.949,5.221-17.162,7.978-27.151
			l29.621,23.697V345.754z"/>
	</g>
</g>
</svg>