<?xml version="1.0" encoding="utf-8"?>
<!-- Svg Vector Icons : http://www.onlinewebfonts.com/icon -->
<!DOCTYPE svg PUBLIC "-//W3C//DTD SVG 1.1//EN" "http://www.w3.org/Graphics/SVG/1.1/DTD/svg11.dtd">
<svg version="1.1" xmlns="http://www.w3.org/2000/svg" xmlns:xlink="http://www.w3.org/1999/xlink" x="0px" y="0px" viewBox="0 0 256 256" enable-background="new 0 0 256 256" xml:space="preserve">
<metadata> Svg Vector Icons : http://www.onlinewebfonts.com/icon </metadata>
<g><g><g><g><path fill="#FFFFFF" d="M25.5,180.8c1.6-1.7,3.2-4.8,2.9-14.9l45.1-4.5c-5.7,12.9-9.6,21.7-9.6,21.7c-0.1,0.2-0.1,0.3-0.2,0.5c-0.2,0.9-1.4,5.4,1.1,8.7c1,1.3,2.9,2.9,6.3,2.9c1.7,0,3.6-0.4,5.8-1.2c3.6-1.3,8.4-2.5,14-3.4v9.3c0,2.2,1.8,3.9,3.9,3.9h23.7c2.2,0,3.9-1.8,3.9-3.9v-12.1l7.5,0c1.7,0,2.9,0,4.3,0.1v12c0,2.2,1.8,3.9,3.9,3.9h23.6c2.2,0,3.9-1.8,3.9-3.9v-9.1c5.7,1,9.4,2.2,12.3,3.2c2.2,0.8,4,1.2,5.7,1.2c3.6,0,5.4-1.8,6.2-2.9c2.4-3.4,1.1-7.9,0.8-8.8c0-0.1-0.1-0.2-0.1-0.4c0,0-4-8.9-9.7-21.9l46.4,4.6c-0.2,10,1.3,13.1,2.9,14.8c1.1,1.1,2.5,1.8,3.9,1.8c0.7,0,1.3-0.1,1.7-0.3c1.1-0.2,2.3-0.7,3.5-1.9c3.2-3.3,6.8-12.2,6.3-52.8l0-2c0-18.6-2.3-40.8-13-40.8c-2.5,0-4.7,1-6.4,2.9c-3.9,4.3-4.4,12.7-4.3,18.3l-68.2-9c-1.3-3.3-2.6-6.5-3.8-9.6C143,68.1,136.5,56.5,131,53c-0.9-0.6-2-0.9-3.3-0.9c-1.2,0-2.3,0.3-2.5,0.3c-0.2,0.1-0.5,0.1-0.7,0.3c-2,1-8.2,3.9-19.9,34.6c-1.2,3.1-2.5,6.4-3.8,9.8l-66.9,8.8c0.1-5.4-0.5-13.5-4.2-17.6c-1.7-1.9-3.9-2.9-6.4-2.9c-10.8,0-13,22-13,40.5l0,1.9c-0.5,40.5,3.1,49.4,6.3,52.6c1.2,1.2,2.5,1.7,3.6,1.9C21.5,182.8,24,182.5,25.5,180.8z M104.8,110.7c0.1-0.3,2.2-7.2,7.2-19.6c4.6-11.7,12.8-12.6,15.2-12.6c0.6,0,0.9,0,0.9,0c15.2,0.2,21.3,31.1,21.5,32.4c0.1,0.6,0,1.2-0.4,1.6c-0.4,0.5-0.9,0.7-1.5,0.7l0,0l0,0h-41l0,0c-0.6,0-1.2-0.3-1.6-0.8C104.7,111.9,104.6,111.3,104.8,110.7z M130.4,123.5v49.2c0,2.5-1.8,4.6-3.9,4.6c-2.2,0-3.9-2-3.9-4.6v-49.2c0-2.5,1.8-4.6,3.9-4.6C128.6,118.9,130.4,121,130.4,123.5z"/></g></g><g></g><g></g><g></g><g></g><g></g><g></g><g></g><g></g><g></g><g></g><g></g><g></g><g></g><g></g><g></g></g></g>
</svg>