<?xml version="1.0" encoding="utf-8"?>
<!-- Svg Vector Icons : http://www.onlinewebfonts.com/icon -->
<!DOCTYPE svg PUBLIC "-//W3C//DTD SVG 1.1//EN" "http://www.w3.org/Graphics/SVG/1.1/DTD/svg11.dtd">
<svg version="1.1" xmlns="http://www.w3.org/2000/svg" xmlns:xlink="http://www.w3.org/1999/xlink" x="0px" y="0px" viewBox="0 0 256 256" enable-background="new 0 0 256 256" xml:space="preserve">
<metadata> Svg Vector Icons : http://www.onlinewebfonts.com/icon </metadata>
<g><g><g><g><path fill="#000000" d="M204.5,208.5c1.9,0,4.8,5.1,6.7,8.5c1.2,2.1,2.4,4.3,3.8,6.2c4.5,6.2,11.1,9.5,19,9.5c0.2,0,0.5,0,0.7,0c1.8,0,3.4-1.3,3.9-3c0.5-1.8-0.1-3.6-1.7-4.7c-5.3-3.6-5.9-10.8-6.5-18.3c-0.2-2.5-0.4-5-0.8-7.4c-2-12.1-6.3-27.2-22.4-36.3c-6.6-3.9-14.2-6-21.9-6c-7.4,0-14.5,1.9-20.8,5.5c-0.6,0.4-1.2,0.9-1.5,1.5l-0.5,0.9c0,0.1-0.1,0.2-0.1,0.3c-3.9,7.9-3.5,17.1-1.9,23.2c3.9,18.8,21.4,33.5,39.7,33.5l0,0c1.6,0,3.3-0.1,4.8-0.3c2.1-0.3,3.6-2,3.7-4.1c0-2.1-1.4-3.9-3.5-4.2c-1.3-0.2-2.3-1.6-2.5-2.8c-0.1-0.5-0.1-1.2,0.2-1.3C203.6,208.6,204.1,208.5,204.5,208.5z"/><path fill="#000000" d="M45.3,132.1c7.3,17.9,20.7,37.1,37.7,54l3,3l23.6-23.6l2.7,2.7c3.5,3.5,8.3,5.5,13.3,5.5c0.3,0,0.6,0,0.9,0c0.3,0,0.7,0.1,0.8,0.2l3,4.6c1.3,1.9,3.3,3,5.5,3l0,0c1.7,0,3.4-0.7,4.7-2l39.2-39.2c1.4-1.4,2.2-3.4,2-5.3c-0.2-2-1.3-3.7-3-4.8l-4.6-3c-0.1-0.2-0.2-0.6-0.2-0.8c0.2-5.3-1.8-10.5-5.5-14.2l-2.7-2.7l23.6-23.6l-3-3c-27-27-58.1-43.8-81.1-43.8c-5.5,0-10.5,1-14.6,3l-4.9-4.9C76.3,27.8,46.3,9.9,27.3,9.9c-5.5,0-9.8,1.5-12.8,4.5c-8.2,8.2-3.6,24.8,1.7,37.2c5.5,13,14.4,27.2,21.1,33.9l4.9,4.9C37.3,100.7,38.4,115.3,45.3,132.1z M112.9,87.3c5.9,0,11.4,2.3,15.6,6.5c8.6,8.6,8.6,22.6,0,31.2c-4.2,4.2-9.7,6.5-15.6,6.5c-5.9,0-11.4-2.3-15.6-6.5c-8.6-8.6-8.6-22.6,0-31.2C101.4,89.6,107,87.3,112.9,87.3z M74.7,51.6c5.9,0,11.4,2.3,15.6,6.5c8.6,8.6,8.6,22.6,0,31.2c-4.2,4.2-9.7,6.5-15.6,6.5c-5.9,0-11.4-2.3-15.6-6.5c-8.6-8.6-8.6-22.6,0-31.2C63.3,53.9,68.8,51.6,74.7,51.6z M34.8,53.1c-2.6-2.6-4-6-4-9.7c0-3.7,1.4-7.1,4-9.7c2.6-2.6,6-4,9.7-4s7.1,1.4,9.7,4c2.6,2.6,4,6,4,9.7c0,3.7-1.4,7.1-4,9.7c-2.6,2.6-6,4-9.7,4S37.4,55.7,34.8,53.1z"/><path fill="#000000" d="M228.8,163.1c-9.4-14.1-25.7-18.2-41.8-18.2c-5.4,0-5.4,8.4,0,8.4c15.4,0,29.2,4,37,18.1c7.9,14.3,7.4,31.4,14.3,46.1c2.3,4.9,9.6,0.6,7.3-4.3C238,197,239,178.4,228.8,163.1z"/><path fill="#000000" d="M235.1,237.6c-8.9,0.5-18-2.3-23.3-9.9c-3.1-4.5-10.4-0.2-7.3,4.3c6.9,10.1,18.5,14.8,30.5,14.1C240.5,245.7,240.5,237.3,235.1,237.6z"/></g></g><g></g><g></g><g></g><g></g><g></g><g></g><g></g><g></g><g></g><g></g><g></g><g></g><g></g><g></g><g></g></g></g>
</svg>