<?xml version="1.0" encoding="utf-8"?>
<!-- Svg Vector Icons : http://www.onlinewebfonts.com/icon -->
<!DOCTYPE svg PUBLIC "-//W3C//DTD SVG 1.1//EN" "http://www.w3.org/Graphics/SVG/1.1/DTD/svg11.dtd">
<svg version="1.1" xmlns="http://www.w3.org/2000/svg" xmlns:xlink="http://www.w3.org/1999/xlink" x="0px" y="0px" viewBox="0 0 256 256" enable-background="new 0 0 256 256" xml:space="preserve">
<metadata> Svg Vector Icons : http://www.onlinewebfonts.com/icon </metadata>
<g><g><path fill="#FFFFFF" d="M89.8,213.7l-40.5,6.2c-3.2,0.5-6.4-1-8.1-3.8l-15.1-24.6c-0.8-1.4-1.2-2.9-1.2-4.5c0-0.1,0-0.3,0-0.4v-52c0-4.5,3.6-8.1,8.1-8.1c4.5,0,8.1,3.6,8.1,8.1v21.6l32.4-57.8l16.3,27.8L89.8,213.7L89.8,213.7z M223,126.7c-4.5,0-8.1,3.6-8.1,8.1v21.6l-32.4-57.8l-16.3,27.8v87.4l40.5,6.2c3.2,0.5,6.4-1,8.1-3.8l15.1-24.6c0.8-1.4,1.2-2.9,1.2-4.5c0-0.1,0-0.3,0-0.4v-51.9C231.1,130.3,227.5,126.7,223,126.7z M150,214.1l-13.8,10.3v13.5c0,4.5-3.6,8.1-8.1,8.1c-4.5,0-8.1-3.6-8.1-8.1v-13.5L106,214.1v-89.9c0-1.4-0.4-2.9-1.1-4.1L82.7,82.2l38.2-68c1.4-2.6,4.1-4.1,7.1-4.1s5.6,1.6,7.1,4.1l38.2,68l-22.2,37.9c-0.7,1.3-1.1,2.6-1.1,4.1L150,214.1L150,214.1z M149.9,84.2c3.4-2.8,3.9-8,1.1-11.4c-0.9-1.1-9.6-11.1-22.8-11.1c-13.1,0-22.1,9.8-23.1,11c-3,3.4-2.6,8.5,0.7,11.5c1.5,1.3,3.4,2,5.3,2c2.2,0,4.5-0.9,6.1-2.7c1.4-1.5,6-5.4,10.9-5.4c5.8,0,10.3,5.2,10.3,5.2C141.4,86.6,146.5,87.1,149.9,84.2z"/><g></g><g></g><g></g><g></g><g></g><g></g><g></g><g></g><g></g><g></g><g></g><g></g><g></g><g></g><g></g></g></g>
</svg>