<?xml version="1.0" encoding="UTF-8" standalone="no"?>
<!DOCTYPE svg PUBLIC "-//W3C//DTD SVG 1.1//EN" "http://www.w3.org/Graphics/SVG/1.1/DTD/svg11.dtd">
<svg xmlns="http://www.w3.org/2000/svg" version="1.1" viewBox="0.00 0.00 512.00 512.00">
<path fill="#FFFFFF" d="
  M 500.06 0.00
  L 502.56 0.00
  Q 510.68 1.64 512.00 9.81
  L 512.00 11.81
  Q 511.40 14.53 509.73 17.74
  Q 382.11 262.35 254.48 506.96
  Q 252.46 510.83 246.69 512.00
  L 244.19 512.00
  Q 241.35 511.27 237.76 509.47
  Q 200.29 490.66 162.67 471.92
  A 0.38 0.38 0.0 0 1 162.57 471.31
  L 201.31 432.56
  Q 201.68 432.19 202.03 432.58
  Q 209.66 441.00 217.26 449.50
  C 225.07 458.24 232.67 456.45 237.83 446.57
  Q 323.47 282.46 409.09 118.35
  C 412.53 111.74 412.19 104.17 404.14 101.38
  C 399.02 99.61 395.75 101.87 391.27 104.21
  Q 228.21 189.31 65.14 274.37
  C 56.77 278.73 53.37 286.54 61.46 293.79
  Q 70.46 301.86 79.49 310.03
  Q 79.91 310.41 79.51 310.81
  L 40.83 349.49
  A 0.48 0.47 -35.6 0 1 40.07 349.37
  Q 20.58 310.49 1.12 271.40
  C 0.56 270.28 0.37 268.90 0.00 267.69
  L 0.00 265.44
  Q 1.02 259.68 5.56 257.31
  Q 250.99 129.24 496.43 1.20
  C 497.58 0.60 498.82 0.32 500.06 0.00
  Z"
/>
<path fill="#FFFFFF" d="
  M 312.89 169.16
  L 374.64 136.94
  A 0.33 0.33 0.0 0 1 375.08 137.38
  L 342.86 199.13
  A 0.33 0.33 0.0 0 1 342.33 199.21
  L 312.81 169.69
  A 0.33 0.33 0.0 0 1 312.89 169.16
  Z"
/>
<path fill="#FFFFFF" d="
  M 247.50 213.25
  C 244.46 213.25 241.52 213.56 239.14 215.67
  Q 232.37 221.68 225.23 229.16
  Q 224.20 230.24 223.13 229.20
  L 214.69 221.07
  A 0.48 0.47 -37.1 0 1 214.80 220.31
  L 292.09 180.05
  A 0.86 0.85 53.9 0 1 293.08 180.21
  L 331.89 219.02
  Q 332.30 219.43 332.03 219.94
  L 291.77 297.12
  Q 291.43 297.79 290.90 297.25
  L 282.20 288.39
  Q 281.83 288.01 282.21 287.65
  Q 289.45 280.53 296.47 273.22
  C 298.24 271.38 298.72 267.35 298.73 264.38
  Q 298.77 244.82 298.75 225.26
  C 298.74 214.33 290.98 213.28 281.62 213.26
  Q 264.57 213.23 247.50 213.25
  Z"
/>
<path fill="#FFFFFF" d="
  M 159.50 256.00
  C 156.42 255.91 153.66 257.97 151.27 260.36
  Q 129.17 282.45 107.12 304.51
  A 0.76 0.75 47.9 0 1 106.00 304.45
  C 103.33 301.17 99.42 299.21 96.88 296.95
  Q 91.73 292.35 86.57 287.77
  A 0.39 0.39 0.0 0 1 86.65 287.14
  L 194.07 231.16
  Q 194.54 230.91 194.91 231.29
  L 208.44 244.81
  Q 208.88 245.25 208.44 245.70
  L 181.68 272.44
  Q 181.27 272.85 180.87 272.45
  C 175.50 267.13 167.24 256.22 159.50 256.00
  Z"
/>
<path fill="#FFFFFF" d="
  M 143.30 341.08
  L 249.53 234.84
  A 0.31 0.31 0.0 0 1 249.75 234.75
  L 276.94 234.75
  A 0.31 0.31 0.0 0 1 277.25 235.06
  L 277.25 262.24
  A 0.31 0.31 0.0 0 1 277.16 262.46
  L 170.94 368.69
  A 0.31 0.31 0.0 0 1 170.50 368.69
  L 143.30 341.52
  A 0.31 0.31 0.0 0 1 143.30 341.08
  Z"
/>
<rect fill="#FFFFFF" x="-27.06" y="-4.42" transform="translate(143.98,303.89) rotate(-45.0)" width="54.12" height="8.84" rx="0.59"/>
<path fill="#FFFFFF" d="
  M 251.58 360.79
  C 256.49 355.88 257.86 349.77 252.57 344.30
  Q 246.41 337.92 239.79 331.45
  A 0.95 0.95 0.0 0 1 239.78 330.10
  L 266.36 303.50
  Q 266.74 303.12 267.12 303.50
  L 280.67 317.04
  Q 281.11 317.48 280.82 318.03
  L 224.99 425.02
  Q 224.71 425.57 224.27 425.14
  Q 215.94 416.99 212.73 412.29
  Q 209.58 407.68 207.52 405.58
  Q 207.16 405.22 207.52 404.86
  Q 229.56 382.80 251.58 360.79
  Z"
/>
<path fill="#FFFFFF" d="
  M 145.6330 457.9939
  A 1.00 1.00 0.0 0 1 144.2188 457.9939
  L 54.0061 367.7812
  A 1.00 1.00 0.0 0 1 54.0061 366.3670
  L 95.2870 325.0861
  A 1.00 1.00 0.0 0 1 96.7012 325.0861
  L 186.9139 415.2988
  A 1.00 1.00 0.0 0 1 186.9139 416.7130
  L 145.6330 457.9939
  Z
  M 114.4015 369.7792
  A 10.15 10.15 0.0 0 0 114.4015 355.4250
  L 103.2150 344.2385
  A 10.15 10.15 0.0 0 0 88.8608 344.2385
  L 88.2385 344.8608
  A 10.15 10.15 0.0 0 0 88.2385 359.2150
  L 99.4250 370.4015
  A 10.15 10.15 0.0 0 0 113.7792 370.4015
  L 114.4015 369.7792
  Z
  M 167.6932 423.0568
  A 10.16 10.16 0.0 0 0 167.6932 408.6884
  L 156.5916 397.5868
  A 10.16 10.16 0.0 0 0 142.2232 397.5868
  L 141.5868 398.2232
  A 10.16 10.16 0.0 0 0 141.5868 412.5916
  L 152.6884 423.6932
  A 10.16 10.16 0.0 0 0 167.0568 423.6932
  L 167.6932 423.0568
  Z"
/>
<path fill="#FFFFFF" d="
  M 160.94 512.00
  L 159.19 512.00
  Q 154.92 511.29 153.06 509.44
  Q 77.81 434.19 2.56 358.94
  Q 0.78 357.15 0.00 352.94
  L 0.00 351.19
  C 1.10 345.34 5.72 341.64 9.90 337.85
  A 0.49 0.49 0.0 0 1 10.67 338.00
  Q 17.97 353.37 25.91 368.36
  Q 27.53 371.42 30.02 373.91
  Q 84.64 428.54 139.29 483.12
  Q 141.45 485.28 144.23 486.61
  Q 159.28 493.84 174.03 501.46
  Q 174.48 501.69 174.14 502.07
  C 169.69 507.03 166.51 510.86 160.94 512.00
  Z"
/>
<rect fill="#FFFFFF" x="-4.42" y="-27.07" transform="translate(207.98,367.90) rotate(45.0)" width="8.84" height="54.14" rx="0.58"/>
</svg>
