<?xml version="1.0" encoding="iso-8859-1"?>
<!-- Uploaded to: SVG Repo, www.svgrepo.com, Generator: SVG Repo Mixer Tools -->
<svg fill="#000000" height="800px" width="800px" version="1.1" id="Layer_1" xmlns="http://www.w3.org/2000/svg" xmlns:xlink="http://www.w3.org/1999/xlink" 
	 viewBox="0 0 512 512" xml:space="preserve">
<g transform="translate(1)">
	<g>
		<g>
			<path d="M135.96,358.4c-5.12,0-8.533,3.413-8.533,8.533s3.413,8.533,8.533,8.533s8.533-3.413,8.533-8.533
				S141.08,358.4,135.96,358.4z"/>
			<path d="M135.96,392.533c-5.12,0-8.533,3.413-8.533,8.533c0,5.12,3.413,8.533,8.533,8.533s8.533-3.413,8.533-8.533
				C144.493,395.947,141.08,392.533,135.96,392.533z"/>
			<path d="M135.96,426.667c-5.12,0-8.533,3.413-8.533,8.533s3.413,8.533,8.533,8.533s8.533-3.413,8.533-8.533
				S141.08,426.667,135.96,426.667z"/>
			<path d="M255.427,238.933c-5.12,0-8.533,3.413-8.533,8.533s3.413,8.533,8.533,8.533s8.533-3.413,8.533-8.533
				S260.547,238.933,255.427,238.933z"/>
			<path d="M255.427,273.067c-5.12,0-8.533,3.413-8.533,8.533s3.413,8.533,8.533,8.533s8.533-3.413,8.533-8.533
				S260.547,273.067,255.427,273.067z"/>
			<path d="M255.427,307.2c-5.12,0-8.533,3.413-8.533,8.533s3.413,8.533,8.533,8.533s8.533-3.413,8.533-8.533
				S260.547,307.2,255.427,307.2z"/>
			<path d="M374.893,358.4c-5.12,0-8.533,3.413-8.533,8.533s3.413,8.533,8.533,8.533s8.533-3.413,8.533-8.533
				S380.013,358.4,374.893,358.4z"/>
			<path d="M374.893,392.533c-5.12,0-8.533,3.413-8.533,8.533c0,5.12,3.413,8.533,8.533,8.533s8.533-3.413,8.533-8.533
				C383.427,395.947,380.013,392.533,374.893,392.533z"/>
			<path d="M374.893,426.667c-5.12,0-8.533,3.413-8.533,8.533s3.413,8.533,8.533,8.533s8.533-3.413,8.533-8.533
				S380.013,426.667,374.893,426.667z"/>
			<path d="M507.16,367.787l-0.853-1.707C381.72,171.52,303.213,46.933,296.387,33.28C281.027,0.853,260.547,0,255.427,0
				s-25.6,0.853-40.96,33.28C205.933,48.64,100.12,215.893,2.84,368.64c-2.56,3.413-3.413,6.827-3.413,11.093v65.707
				c0,5.973,2.56,11.947,7.68,16.213c4.267,3.413,8.533,5.12,13.653,5.12c1.707,0,2.56-0.853,4.267-0.853l76.8-15.36v10.24
				c0,9.387,7.68,17.067,17.067,17.067h8.533v25.6c0,5.12,3.413,8.533,8.533,8.533s8.533-3.413,8.533-8.533v-25.6h8.533
				c9.387,0,17.067-7.68,17.067-17.067v-24.796l26.773-5.432l-0.32,6.335c-0.853,6.827,1.707,12.8,5.973,17.067
				s10.24,6.827,16.213,6.827h28.16v42.667c0,5.12,3.413,8.533,8.533,8.533s8.533-3.413,8.533-8.533V460.8h28.16
				c5.973,0,11.947-2.56,16.213-6.827s5.973-10.24,5.973-16.213l-0.428-8.484l26.881,6.233V460.8c0,9.387,7.68,17.067,17.067,17.067
				h8.533v25.6c0,5.12,3.413,8.533,8.533,8.533s8.533-3.413,8.533-8.533v-25.6h8.533c9.387,0,17.067-7.68,17.067-17.067v-12.529
				l75.947,16.796c6.827,1.707,12.8,0,17.92-4.267c5.12-3.413,7.68-9.387,7.68-16.213V378.88
				C510.573,375.467,509.72,371.2,507.16,367.787z M135.576,290.153c2.306,0.048,4.438,0.436,6.391,1.099
				c0.193,0.073,0.392,0.134,0.582,0.214c0.017,0.006,0.033,0.013,0.05,0.02c6.113,2.603,10.428,8.679,10.428,15.714v17.067h-34.133
				v-15.36c0-10.064,7.421-17.639,15.776-18.708C134.97,290.176,135.272,290.16,135.576,290.153z M153.027,460.8h-34.133v-13.653
				V341.333h34.133v98.133V460.8z M269.08,110.933l11.947,11.947l2.56,47.787H263.96v-59.733H269.08z M246.893,170.667h-19.527
				l2.461-47.787l11.947-11.947h5.12V170.667z M297.24,442.027c-1.707,0.853-2.56,1.707-4.267,1.707H263.96v-68.267
				c0-5.12-3.413-8.533-8.533-8.533s-8.533,3.413-8.533,8.533v68.267h-27.307c-1.707,0-3.413-0.853-4.267-1.707
				c-0.853-1.707-1.707-2.56-1.707-4.267l12.874-250.027h58.23l14.229,250.027C298.947,439.467,298.093,441.173,297.24,442.027z
				 M374.617,290.147c4.143,0.144,8.924,1.807,11.37,4.253c3.413,3.413,5.12,7.68,5.12,12.8l0.632,17.067h-33.912v-15.36
				c0-10.064,7.421-17.639,15.776-18.708C373.939,290.174,374.276,290.153,374.617,290.147z M357.827,460.8v-21.333v-98.133h34.133
				V460.8H357.827z M494.36,444.587c0,1.707-0.853,2.56-1.707,3.413c-0.853,0.853-1.707,0.853-3.413,0.853l-80.213-16.213V307.2
				c0-9.387-3.413-17.92-10.24-24.747s-16.213-10.24-25.6-9.387c-2.264,0.108-4.473,0.462-6.605,1.035
				c-14.79,3.737-25.821,17.19-25.821,33.099v1.707v109.227l-27.307-5.12l-15.36-296.96l-22.187-22.187h-40.96l-22.187,22.187
				L197.4,412.16l-27.307,5.973V307.2c0-9.387-3.413-17.92-10.24-24.747s-16.213-10.24-25.6-9.387
				c-2.264,0.108-4.473,0.462-6.605,1.035c-14.79,3.737-25.821,17.19-25.821,33.099v1.707V432.64l-80.213,16.213
				c-1.707,0-2.56,0-3.413-0.853s-1.707-1.707-1.707-3.413V378.88c0-0.853,0-0.853,0.853-2.56
				C77.933,282.453,218.733,60.587,228.973,40.96c11.947-23.04,23.893-23.893,24.747-23.893h0.64h1.067h0.853
				c0.853,0,13.653,0,25.6,23.893c9.387,19.627,151.04,240.64,210.773,334.507l0.853,0.853c0.853,0.853,0.853,1.707,0.853,2.56
				V444.587z"/>
		</g>
	</g>
</g>
</svg>