<?xml version="1.0" encoding="iso-8859-1"?>
<!-- Uploaded to: SVG Repo, www.svgrepo.com, Generator: SVG Repo Mixer Tools -->
<svg fill="#FFFFFF" height="800px" width="800px" version="1.1" id="Capa_1" xmlns="http://www.w3.org/2000/svg" xmlns:xlink="http://www.w3.org/1999/xlink" 
	 viewBox="0 0 511 511" xml:space="preserve">
<path d="M510.976,420.63c0.036-0.496,0.022-0.987-0.039-1.469c-0.485-12.103-4.03-23.898-10.339-34.276L275.581,14.696
	C271.283,7.624,263.776,3.402,255.5,3.402s-15.783,4.222-20.081,11.294L10.402,384.885c-6.309,10.378-9.854,22.172-10.339,34.276
	c-0.061,0.482-0.075,0.973-0.039,1.469C0.015,421.094,0,421.558,0,422.023v43.748c0,4.83,2.19,9.296,6.008,12.253
	c2.766,2.143,6.084,3.26,9.458,3.26c1.284,0,2.576-0.162,3.849-0.49l66.109-16.498l2.595,36.335c0.28,3.925,3.546,6.966,7.481,6.966
	h48c3.935,0,7.201-3.041,7.481-6.966l3.832-53.652l45.609-11.382H248v64.5c0,4.142,3.358,7.5,7.5,7.5s7.5-3.358,7.5-7.5v-64.5
	h47.578l45.609,11.382l3.832,53.652c0.28,3.925,3.546,6.966,7.481,6.966h48c3.935,0,7.201-3.041,7.481-6.966l2.595-36.336
	l66.05,16.483c4.676,1.206,9.548,0.203,13.366-2.755c3.818-2.958,6.008-7.424,6.008-12.253v-43.748
	C511,421.558,510.985,421.094,510.976,420.63z M248.236,22.487c1.578-2.596,4.226-4.085,7.264-4.085s5.686,1.489,7.263,4.085
	l225.018,370.189c3.283,5.401,5.615,11.288,6.938,17.41l-64.089-16.539l0.351-4.916c0.007-0.093,0.003-0.186,0.006-0.279
	c0.003-0.085,0.013-0.168,0.013-0.254c0-0.033-0.005-0.065-0.005-0.098c-0.002-0.132-0.011-0.263-0.02-0.394
	c-0.008-0.122-0.014-0.245-0.028-0.365c-0.003-0.025-0.002-0.049-0.006-0.074l-8-63.999c-0.469-3.753-3.66-6.57-7.442-6.57h-48
	c-3.782,0-6.973,2.816-7.442,6.57l-6.317,50.537l-39.823-10.277l-18.941-239.92c-0.169-2.147-1.253-4.118-2.977-5.41l-22.399-16.8
	c-8.303-6.227-19.899-6.228-28.201,0l-22.4,16.8c-1.723,1.292-2.807,3.263-2.977,5.41l-18.941,239.92l-39.823,10.277l-6.317-50.537
	c-0.469-3.753-3.66-6.57-7.442-6.57h-48c-3.782,0-6.973,2.816-7.442,6.57l-8,63.999c-0.003,0.025-0.003,0.049-0.006,0.074
	c-0.014,0.121-0.02,0.243-0.028,0.365c-0.009,0.131-0.018,0.262-0.02,0.394c0,0.033-0.005,0.065-0.005,0.098
	c0,0.086,0.01,0.169,0.013,0.254c0.003,0.093,0,0.186,0.006,0.279l0.351,4.916l-64.089,16.539c1.323-6.122,3.656-12.009,6.939-17.41
	L248.236,22.487z M415.004,380.598h-47.009l6.125-49h34.758L415.004,380.598z M248,136.549c-0.619,0.341-1.224,0.717-1.8,1.149
	l-17.273,12.955l1.783-22.588L248,115.099V136.549z M263,115.098l17.29,12.967l1.783,22.588L264.8,137.698
	c-0.576-0.432-1.181-0.808-1.8-1.15V115.098z M143.004,380.598H95.996l6.125-49h34.758L143.004,380.598z M15.625,466.256
	c-0.072,0.017-0.237,0.06-0.431-0.089C15,466.017,15,465.845,15,465.771v-39.863l66.457-17.15l2.882,40.349L15.625,466.256z
	 M102.483,492.598l-6.929-97h47.891l-6.929,97H102.483z M158.972,388.754l36.862-9.513l-3.386,42.886l-36.511,9.111L158.972,388.754
	z M263,420.598v-96.5c0-4.142-3.358-7.5-7.5-7.5s-7.5,3.358-7.5,7.5v96.5h-40.385l19.738-250.015l27.847-20.885
	c0.176-0.132,0.422-0.133,0.6,0l27.847,20.885l19.738,250.015H263z M318.552,422.128l-3.386-42.886l36.862,9.512l3.035,42.485
	L318.552,422.128z M374.483,492.598l-6.929-97h47.891l-6.929,97H374.483z M495.806,466.167c-0.193,0.149-0.359,0.106-0.489,0.074
	l-68.656-17.133l2.882-40.349L496,425.909v39.863C496,465.845,496,466.017,495.806,466.167z"/>
</svg>