<?xml version="1.0" encoding="iso-8859-1"?>
<!-- Uploaded to: SVG Repo, www.svgrepo.com, Generator: SVG Repo Mixer Tools -->
<svg fill="#FFFFFF" version="1.1" id="Layer_1" xmlns="http://www.w3.org/2000/svg" xmlns:xlink="http://www.w3.org/1999/xlink" 
	 viewBox="0 0 512.003 512.003" xml:space="preserve">
<g>
	<g>
		<g>
			<polygon points="137.848,417.477 153.602,417.477 153.602,441.108 169.355,441.108 169.355,417.477 185.108,417.477 
				185.108,401.723 137.848,401.723 			"/>
			<polygon points="326.894,417.477 342.648,417.477 342.648,441.108 358.401,441.108 358.401,417.477 374.155,417.477 
				374.155,401.723 326.894,401.723 			"/>
			<polygon points="232.371,417.477 248.125,417.477 248.125,441.108 263.878,441.108 263.878,417.477 279.631,417.477 
				279.631,401.723 232.371,401.723 			"/>
			<rect x="19.694" y="401.726" width="15.751" height="110.276"/>
			<rect x="51.201" y="441.103" width="15.751" height="55.138"/>
			<rect x="74.833" y="401.726" width="15.751" height="23.631"/>
			<rect x="476.559" y="401.726" width="15.751" height="110.276"/>
			<rect x="445.047" y="441.103" width="15.751" height="55.138"/>
			<rect x="421.421" y="401.726" width="15.751" height="23.631"/>
			
				<rect x="232.369" y="114.893" transform="matrix(-0.7071 -0.7071 0.7071 -0.7071 321.0043 385.0295)" width="15.751" height="22.279"/>
			
				<rect x="263.876" y="114.898" transform="matrix(-0.7071 -0.7071 0.7071 -0.7071 374.7866 407.3169)" width="15.751" height="22.279"/>
			<rect x="153.607" y="456.864" width="15.751" height="55.139"/>
			<rect x="248.122" y="456.864" width="15.751" height="55.139"/>
			<rect x="342.647" y="456.864" width="15.751" height="55.139"/>
			<rect x="216.62" y="252.063" width="15.751" height="15.751"/>
			<rect x="216.62" y="283.565" width="15.751" height="15.751"/>
			<rect x="216.62" y="315.077" width="15.751" height="15.751"/>
			<rect x="279.633" y="283.565" width="15.751" height="15.751"/>
			<rect x="279.633" y="315.077" width="15.751" height="15.751"/>
			<rect x="279.633" y="252.063" width="15.751" height="15.751"/>
			<path d="M488.003,376.393c5.109-9.179,4.854-19.989-0.681-28.916L280.256,13.501C275.015,5.047,265.948,0,256.002,0
				c-0.001,0-0.001,0-0.001,0c-9.946,0-19.014,5.046-24.255,13.5L24.681,347.476c-5.535,8.927-5.79,19.738-0.681,28.915
				c5.11,9.18,14.432,14.66,24.937,14.66h414.13C473.572,391.051,482.893,385.572,488.003,376.393z M245.137,21.802
				c2.383-3.845,6.343-6.048,10.865-6.048s8.481,2.205,10.864,6.048l10.901,17.583h-43.531L245.137,21.802z M48.936,375.298
				c-4.706,0-8.881-2.456-11.171-6.567c-2.289-4.111-2.174-8.955,0.305-12.953l28.885-46.588v66.108H48.936z M185.109,375.298
				h-47.263v-12.96h47.263V375.298z M185.11,346.585h-0.001h-47.263v-78.769c0-13.03,10.602-23.631,23.632-23.631
				c13.03,0,23.631,10.601,23.631,23.631V346.585z M374.155,375.298h-47.261v-12.96h47.261V375.298z M374.156,346.585h-0.001
				h-47.261v-78.769c0-13.03,10.601-23.631,23.631-23.631c13.03,0,23.631,10.601,23.631,23.631V346.585z M429.294,375.298h-39.385
				V267.815c0-19.02-13.552-34.932-31.508-38.591v-16.547h-15.754v16.547c-17.955,3.659-31.508,19.572-31.508,38.591v107.483
				h-47.261V182.946l55.139-31.508v-4.571c0-34.748-28.268-63.015-63.015-63.015s-63.015,28.268-63.015,63.015v4.571l55.139,31.508
				v192.352h-47.261V267.815c0-19.02-13.552-34.932-31.508-38.591v-16.547h-15.754v16.547
				c-17.955,3.659-31.509,19.572-31.509,38.591v107.483H82.709v-91.517L224.468,55.138h63.065l141.76,228.645V375.298z
				 M256.001,169.302l-47.053-26.887c2.251-23.981,22.495-42.81,47.053-42.81s44.803,18.83,47.053,42.81L256.001,169.302z
				 M474.236,368.731c-2.288,4.112-6.464,6.567-11.17,6.567h-18.019v-66.107l28.884,46.587
				C476.411,359.777,476.525,364.62,474.236,368.731z"/>
		</g>
	</g>
</g>
</svg>