<?xml version="1.0" encoding="utf-8"?>
<!-- Uploaded to: SVG Repo, www.svgrepo.com, Generator: SVG Repo Mixer Tools -->
<svg fill="#000000" width="800px" height="800px" viewBox="0 0 32 32" version="1.1" xmlns="http://www.w3.org/2000/svg">
<title>crystal-cluster</title>
<path d="M26.976 13.244l-1.996-1.023-4.598 1.232 2.436-4.218-0.222-3.447-3.672 1.183v-2.065l-2.477-3.716-3.362 3.716v5.62l-2.168-3.756-2.218-1.097-0.584 2.715 4.176 7.234-4.773 1.279-1.46 1.744 2.136 0.781 4.171-1.118-1.738 3.010 0.348 3.915 2.111-0.981v2.066l2.92 4.158 2.92-4.158v-4.542l1.349 4.248 2.24 1.707 0.845-2.686-2.834-8.923 5.132-1.375 1.32-1.502zM15.593 21.342l0 0-0.899-4.607-2.596-0.782 2.596-0.782 1.395-7.147 1.401 7.179 2.488 0.749-2.488 0.749-1.401 7.179-0.496-2.54z"></path>
</svg>