<?xml version="1.0" encoding="utf-8"?>
<!-- Svg Vector Icons : http://www.onlinewebfonts.com/icon -->
<!DOCTYPE svg PUBLIC "-//W3C//DTD SVG 1.1//EN" "http://www.w3.org/Graphics/SVG/1.1/DTD/svg11.dtd">
<svg version="1.1" xmlns="http://www.w3.org/2000/svg" xmlns:xlink="http://www.w3.org/1999/xlink" x="0px" y="0px" viewBox="0 0 256 256" enable-background="new 0 0 256 256" xml:space="preserve">
<metadata> Svg Vector Icons : http://www.onlinewebfonts.com/icon </metadata>
<g><g><g><path fill="#000000" d="M202.2,10.7c-9.4,4.1-9.8,17.3-0.6,21.6c4.4,2,9,1.5,12.6-1.5c6.7-5.6,5.1-16.7-3-20C208.9,9.8,204.4,9.7,202.2,10.7z"/><path fill="#000000" d="M48.4,26.7c-8,2.1-15.3,7-19.7,13.2c-5,7-6.9,12.9-6.9,20.9c0,8.9,2.6,16.3,8.1,22.9l2.7,3.2L31.1,90c-6.9,13.9-10.5,33-9.1,49.1c1.1,13.1,3.9,23.7,9.2,34.7c5.1,10.8,10,17.7,18.4,26.4c4,4.1,11,10.3,12.2,10.8c0.1,0-0.2,1.8-0.5,4c-0.7,5.4,0.1,10.3,2.8,15.7c6.9,13.7,23,19.1,37,12.2c3.6-1.7,9.5-7.3,11.2-10.4l1.3-2.4h6.7c32.9,0,63.4-16.4,81.9-44.1c3.8-5.6,9.2-16.6,11.3-22.8c4.5-13.7,6.3-30.9,4.4-43.3c-0.3-1.8-0.2-1.9,2.8-3.8c9.8-6,15.1-17.4,13.3-28.1c-1.8-10.8-10-19.7-20.5-22.4c-4.5-1.2-11.6-0.8-15.8,0.6l-3,1.1l-4.4-4.5c-15.3-15.4-33.1-24.7-55-28.6c-5.3-0.9-25.2-0.9-30.4,0c-5.4,1-13.7,3.1-16.8,4.2l-2.6,1l-1.6-1.9C75.3,27.9,61,23.4,48.4,26.7z M129.5,42c19.2,2.1,36.6,9.9,51.2,22.9c2.9,2.6,5.7,5.3,6.2,6.1l0.9,1.4l-2.1,2.3c-7.2,7.8-8.6,20.6-3.4,30.9c1.8,3.6,8.1,9.7,11.7,11.4c3.9,1.9,8.5,3,12.4,3h3.3l0.4,2.9c0.6,5.3-0.2,21-1.4,26.7c-8.8,41.4-43.2,70.5-85.5,72.5l-7.1,0.3l-0.1-4.1c-0.1-7.8-2.7-13.8-8.3-19.4c-8.6-8.5-20.6-10.5-31.8-5.1c-1.8,0.8-4.5,2.9-7,5.5c-3.6,3.6-4.2,4-5,3.4c-14.5-12.1-24.2-26-29.6-42.3c-3-9.1-4-14.9-4.4-25.3c-0.3-10.6,0.3-16.6,2.5-25.3c1.3-5.1,5-15.6,6.2-17.5c0.4-0.5,1.2-0.3,3.9,0.9c1.8,0.9,5,1.9,7,2.4c18.6,3.9,37-7.4,42-26c1.7-6.3,1-16-1.6-22.1c-0.3-0.7,0.3-1.1,3.7-2.2C104.9,41.9,117.8,40.7,129.5,42z M61.7,43.2c1.7,0.5,4.4,1.7,5.9,2.7C73.9,50.3,78,61.3,74,63.3c-2,1-3.3-0.2-3.9-3.8c-0.7-3.9-1.8-5.9-4.2-8.1c-2.4-2-4.8-3.1-7.1-3.1c-2.3,0-4.1-1.3-4.1-2.9c0-1.3,1.7-2.9,3.1-2.9C58.2,42.5,60,42.8,61.7,43.2z M212,83.5c2.7,1.5,4.7,4.6,5,7.7c0.2,2.3,0.1,2.7-1.2,3.5c-1.3,0.8-1.5,0.8-2.7,0.1c-0.9-0.6-1.3-1.3-1.3-2.5c0-1.9-2.5-4.7-4.3-4.7c-3.1,0-4.7-3.3-2.4-5C206.7,81.6,209.2,81.9,212,83.5z M91.6,208.5c5.7,1.7,9.9,9.8,6.2,12.1c-1.2,0.8-1.4,0.8-2.6,0c-0.7-0.5-1.3-1.4-1.3-2c0-1.9-1.9-4.5-3.5-4.8c-4-0.8-5.7-3.5-3.2-5.2C88.6,207.5,88.4,207.5,91.6,208.5z"/><path fill="#000000" d="M111.4,97.5c-12.7,3.3-22.3,13-25.8,25.7c-1.2,4.5-1.2,12.8,0,17.3c4.2,15.8,18.3,26.7,34.5,26.7c16.2,0,30.3-11,34.4-26.7c1.2-4.5,1.2-12.8,0.1-17.3C149.7,104.4,130,92.7,111.4,97.5z M126.7,114.7c6.7,2.6,11.8,9.7,11.8,16.5c0,1.5-0.3,2.2-1.3,2.8c-1.2,0.8-1.4,0.8-2.6,0.1c-0.9-0.6-1.3-1.5-1.5-3.5c-0.7-6.2-6.1-11.6-11.5-11.6c-3.6,0-5.5-3.2-2.9-5C120,113.1,123.2,113.4,126.7,114.7z"/><path fill="#000000" d="M163.4,144.3c-4.4,1.3-7.8,6.1-7.8,11.2c0,6.8,5,11.8,11.7,11.8c13,0,16.4-17.9,4.4-22.9C169.8,143.6,165.8,143.5,163.4,144.3z"/></g></g></g>
</svg>