<?xml version="1.0" encoding="utf-8"?>
<!-- Svg Vector Icons : http://www.onlinewebfonts.com/icon -->
<!DOCTYPE svg PUBLIC "-//W3C//DTD SVG 1.1//EN" "http://www.w3.org/Graphics/SVG/1.1/DTD/svg11.dtd">
<svg version="1.1" xmlns="http://www.w3.org/2000/svg" xmlns:xlink="http://www.w3.org/1999/xlink" x="0px" y="0px" viewBox="0 0 256 256" enable-background="new 0 0 256 256" xml:space="preserve">
<metadata> Svg Vector Icons : http://www.onlinewebfonts.com/icon </metadata>
<g><g><g><path fill="#000000" d="M32,39.4c-0.6,0.2-1.1,0.7-1,1c0.3,0.8,6.4,2.8,20.8,6.8c18.9,5.3,26.2,8,42.4,16c22,10.8,37.3,21.4,52.5,36.7c14.5,14.5,18.3,19.8,18.6,26.4c0.2,4.3-0.3,5.6-4.8,10.3c-3.6,3.8-4.3,5.4-3.3,7.5c0.9,1.9,4.4,4.4,7,4.9c5,1.1,9.4-1.4,11.9-6.9c1.8-4,2.2-10.5,0.9-15c-3-10.5-16.7-27.7-31.8-40.1c-16.7-13.6-41.4-28.5-61.5-36.9c-10.9-4.6-24.9-8.8-35.2-10.6C43.7,38.8,33.8,38.6,32,39.4z"/><path fill="#000000" d="M38.4,64.5c-15.2,1.4-24.9,8.3-27.7,19.7c-0.3,1.5-0.6,4.6-0.7,6.9c0,3.7,0.2,4.5,1.5,7.1c1.5,3,2.8,4.3,3.5,3.6c0.2-0.2,0.3-3.7,0.2-7.8c-0.1-7.1-0.1-7.5,1.2-10.1c4.5-9.4,18.8-14.3,35.7-12.6c20.3,2.1,40.3,8.2,54.3,16.5c9.4,5.5,16.2,11.2,22.8,19.3c7.4,9,14.7,14.7,17.1,13.5c1.2-0.7,1-2-0.6-5.3c-5.9-11.5-17.7-22.2-36.7-33.4C89.1,70.2,58.2,62.6,38.4,64.5z"/><path fill="#000000" d="M151.7,77c0,0.4,5.6,6.4,12.4,13.4c17.6,18.1,24.3,26.5,29.7,36.9c5.6,10.9,6.8,17.5,4.1,23.1c-2.8,5.7-8.1,8.7-15.7,9.2c-4.8,0.2-7.9-0.4-21.9-4.8c-15.4-4.7-18.2-4.3-14.8,2.4c2.6,5.1,9.2,9.5,18.3,12.1c7.8,2.3,13,2.9,23.7,2.9l9.9,0l3.3-1.6c9.1-4.5,14.3-16.1,12.1-26.8c-0.8-4.1-3.8-10.5-8.1-17.7c-9.5-15.9-26.9-33.5-46-46.5C153.7,76.4,151.7,75.6,151.7,77z"/><path fill="#000000" d="M58.1,85.9c-19,4.3-19.6,23.1-1.8,50.8c8.2,12.8,22.2,28.2,31,34.5c1.9,1.3,5.3,3.8,7.6,5.6c5.1,3.9,11,7.7,15.3,10.1c4.1,2.3,5.2,2.6,5.6,1.7c0.2-0.5-2.1-2.9-6.9-7.3C84.4,159,77.9,152.5,70.1,142c-7.2-9.7-13.3-21.2-14.6-28c-1.9-9.6,6-18.1,17.4-18.9c6.2-0.4,12,1.2,25.8,7.2c11.3,5,17.6,6.6,18.3,4.6c0.5-1.3-1.4-3.2-6.5-6.7c-8.8-6.1-19.6-10.9-29.9-13.5C74.2,85.2,63,84.7,58.1,85.9z"/><path fill="#000000" d="M85.2,106.6c-8.2,2.2-12.5,9.7-10.2,17.7c1.7,6,7.6,16.1,14.1,24.1c15.8,19.6,50.8,44.6,80,57.2c15.3,6.6,37.1,11.9,46.6,11.5c2.8-0.1,3.2-0.2,3.3-1.2c0.2-1.3-2.8-2.6-14.7-6c-16-4.7-25-7.9-37.1-13.5c-27.6-12.6-58.2-35.2-70.7-52c-5.2-7-9.9-17.4-9.3-20.4c0.4-2,3.2-4.1,7.3-5.6c6.1-2.3,7.2-4.5,3.9-8.1C95.3,106.7,90.2,105.2,85.2,106.6z"/><path fill="#000000" d="M110.1,116.2c-4.6,1.4-4.2,5.6,1.2,11.5c9.1,10,28.7,18.8,35.6,15.9c4.4-1.9,3.2-6.4-3.7-13c-7.1-6.9-17.2-12.4-26.1-14.2C112.9,115.6,112.1,115.6,110.1,116.2z"/><path fill="#000000" d="M106.1,133.6c-1,1-1.3,1.7-1.3,3.6c0,8.3,12.6,21.4,34.5,35.9c26.8,17.7,45.5,24.4,68.1,24.4c7.1,0,17.6-1.1,23-2.5c6.6-1.6,12-6.5,14.4-12.6c1.5-4,1.6-10.7,0.1-14.1c-0.6-1.3-1.3-2.3-1.6-2.2s-0.9,1.4-1.4,3c-2.6,8.3-10.1,14.3-20.2,16.4c-3.4,0.6-5.9,0.8-13.8,0.5c-12.5-0.3-20.5-1.8-32.3-6.1c-10.4-3.7-25.1-11.8-34.9-19.3c-1.7-1.2-8-7.2-14.1-13.2C112.1,133.3,108.7,131,106.1,133.6z"/></g></g></g>
</svg>