<?xml version="1.0" encoding="iso-8859-1"?>
<!-- Uploaded to: SVG Repo, www.svgrepo.com, Generator: SVG Repo Mixer Tools -->
<svg fill="#000000" version="1.1" id="Layer_1" xmlns="http://www.w3.org/2000/svg" xmlns:xlink="http://www.w3.org/1999/xlink" 
	 viewBox="0 0 297.21 297.21" xml:space="preserve">
<g>
	<g>
		<g>
			<path d="M215.271,135.305h-14.286V94.924l-23.81-19.052V51.448c0-14.752-5.743-28.619-16.171-39.048L148.605,0l-12.4,12.4
				c-10.429,10.429-16.171,24.295-16.171,39.048v24.424l-23.81,19.052v40.381H81.938c-44.638,0-80.952,36.314-80.952,80.952
				S37.3,297.21,81.938,297.21h133.333c44.638,0,80.952-36.314,80.952-80.952S259.911,135.305,215.271,135.305z M177.177,88.067
				l14.286,11.428v30.657l-14.286-11.429V88.067z M129.558,51.448c0-12.205,4.752-23.686,13.386-32.314l5.662-5.667l5.662,5.662
				c8.633,8.633,13.386,20.11,13.386,32.319v17.19v47.619h-38.095V68.659c0.011,10.496,8.549,19.027,19.047,19.027
				c10.505,0,19.048-8.543,19.048-19.048S159.11,49.59,148.605,49.59s-19.048,8.543-19.048,19.048V51.448z M139.081,68.638
				c0-5.252,4.271-9.524,9.524-9.524c5.252,0,9.524,4.271,9.524,9.524c0,5.252-4.271,9.524-9.524,9.524
				C143.354,78.162,139.081,73.891,139.081,68.638z M105.748,99.495l14.286-11.424v30.657l-14.286,11.429V99.495z M91.462,144.829
				h4.762v5.148l30.247-24.196h44.271l30.243,24.195v-5.148h4.762v109.524c0,2.629-2.133,4.762-4.762,4.762H96.225
				c-2.629,0-4.762-2.133-4.762-4.762V144.829z M215.271,287.686H81.938c-39.386,0-71.429-32.043-71.429-71.429
				c0-39.386,32.043-71.429,71.429-71.429v109.524c0,7.876,6.41,14.286,14.286,14.286h104.762c7.876,0,14.286-6.41,14.286-14.286
				V144.829c39.386,0,71.429,32.043,71.429,71.429S254.657,287.686,215.271,287.686z"/>
			<path d="M250.987,206.733c6.567,0,11.905-5.338,11.905-11.905s-5.338-11.905-11.905-11.905c-6.567,0-11.905,5.338-11.905,11.905
				S244.42,206.733,250.987,206.733z M250.987,192.448c1.31,0,2.381,1.071,2.381,2.381s-1.071,2.381-2.381,2.381
				s-2.381-1.071-2.381-2.381S249.677,192.448,250.987,192.448z"/>
			<path d="M250.987,221.019c-6.567,0-11.905,5.338-11.905,11.905c0,6.567,5.338,11.905,11.905,11.905
				c6.567,0,11.905-5.338,11.905-11.905C262.891,226.357,257.552,221.019,250.987,221.019z M250.987,235.305
				c-1.31,0-2.381-1.071-2.381-2.381s1.071-2.381,2.381-2.381s2.381,1.071,2.381,2.381
				C253.368,234.233,252.295,235.305,250.987,235.305z"/>
			<path d="M243.844,213.876c0-6.567-5.338-11.905-11.905-11.905c-6.567,0-11.905,5.338-11.905,11.905
				c0,6.567,5.338,11.905,11.905,11.905C238.506,225.781,243.844,220.443,243.844,213.876z M231.938,216.257
				c-1.31,0-2.381-1.071-2.381-2.381s1.071-2.381,2.381-2.381s2.381,1.071,2.381,2.381S233.248,216.257,231.938,216.257z"/>
			<path d="M270.034,201.971c-6.567,0-11.905,5.338-11.905,11.905s5.338,11.905,11.905,11.905c6.567,0,11.905-5.338,11.905-11.905
				S276.601,201.971,270.034,201.971z M270.034,216.257c-1.31,0-2.381-1.071-2.381-2.381s1.071-2.381,2.381-2.381
				s2.381,1.071,2.381,2.381S271.344,216.257,270.034,216.257z"/>
			<path d="M58.13,182.924H34.32v19.048H15.271v23.81H34.32v19.048h23.81v-19.048h19.048v-23.81H58.13V182.924z M34.32,216.257
				h-9.524v-4.762h9.524V216.257z M48.605,235.305h-4.762v-9.524h4.762V235.305z M48.605,216.257h-4.762v-4.762h4.762V216.257z
				 M48.605,201.972h-4.762v-9.524h4.762V201.972z M67.652,211.495v4.762h-9.524v-4.762H67.652z"/>
			<rect x="143.844" y="140.067" width="9.524" height="85.714"/>
			<rect x="167.652" y="140.067" width="9.524" height="52.381"/>
			<rect x="120.034" y="140.067" width="9.524" height="52.381"/>
		</g>
	</g>
</g>
</svg>