<?xml version="1.0" encoding="iso-8859-1"?>
<!-- Uploaded to: SVG Repo, www.svgrepo.com, Generator: SVG Repo Mixer Tools -->
<svg fill="#000000" version="1.1" id="Layer_1" xmlns="http://www.w3.org/2000/svg" xmlns:xlink="http://www.w3.org/1999/xlink" 
	 viewBox="0 0 512 512" xml:space="preserve">
<g>
	<g>
		<rect x="239.305" y="469.315" width="33.391" height="42.685"/>
	</g>
</g>
<g>
	<g>
		<path d="M444.694,300.26v-88.52c15.172-14.025,21.586-35.248,16.955-55.193l24.401-14.088l-16.696-28.917l-24.375,14.073
			c-6.81-6.392-15.132-11.047-24.409-13.532c-10.65-2.854-21.636-2.588-31.91,0.627l-76.644-44.251
			c-4.56-20.155-19.732-36.321-39.32-42.283V0h-33.391v28.176c-19.589,5.963-34.761,22.13-39.322,42.282l-76.644,44.25
			c-10.273-3.212-21.26-3.478-31.91-0.626c-9.277,2.485-17.599,7.14-24.409,13.532l-24.375-14.073L25.95,142.458l24.401,14.088
			c-4.631,19.945,1.783,41.167,16.956,55.192v88.52c-15.172,14.025-21.586,35.248-16.956,55.192l-24.401,14.09l16.696,28.917
			l24.375-14.073c6.811,6.392,15.133,11.047,24.409,13.532c4.949,1.326,9.971,1.982,14.96,1.982c5.744,0,11.44-0.898,16.936-2.616
			l76.657,44.258c5.791,25.591,28.7,44.764,56.017,44.764s50.226-19.172,56.017-44.764l76.658-44.258
			c5.496,1.717,11.19,2.616,16.935,2.616c4.989,0,10.013-0.656,14.96-1.982c9.277-2.485,17.599-7.14,24.409-13.532l24.375,14.073
			l16.696-28.917l-24.401-14.088C466.28,335.508,459.866,314.286,444.694,300.26z M111.896,285.262
			c-3.743-0.374-7.49-0.378-11.197-0.018v-58.505c1.829,0.178,3.663,0.298,5.505,0.298c1.894,0,3.793-0.126,5.692-0.315V285.262z
			 M308.295,106.864l50.684,29.263c-2.167,3.03-4.036,6.276-5.584,9.706l-50.713-29.28
			C304.853,113.528,306.736,110.287,308.295,106.864z M203.706,106.866c1.559,3.422,3.443,6.664,5.613,9.688l-50.712,29.28
			c-1.547-3.429-3.417-6.676-5.584-9.706L203.706,106.866z M203.706,405.136l-50.684-29.263c2.167-3.03,4.036-6.276,5.584-9.706
			l50.712,29.28C207.148,398.472,205.265,401.713,203.706,405.136z M308.295,405.134c-1.559-3.422-3.443-6.664-5.613-9.688
			l50.713-29.28c1.547,3.429,3.417,6.676,5.584,9.706L308.295,405.134z M366.714,300.219c-4.19,3.879-7.821,8.406-10.758,13.491
			s-5.04,10.494-6.304,16.062l-76.606,44.229c-5.387-1.677-11.113-2.582-17.045-2.582c-5.932,0-11.657,0.904-17.045,2.581
			l-76.606-44.228c-1.264-5.569-3.368-10.977-6.304-16.062s-6.568-9.611-10.758-13.491v-88.437
			c4.19-3.879,7.821-8.406,10.758-13.491c2.936-5.085,5.04-10.494,6.304-16.062L238.955,138c5.387,1.677,11.113,2.582,17.045,2.582
			c5.933,0,11.657-0.905,17.045-2.581l76.606,44.228c1.264,5.569,3.368,10.977,6.304,16.062c2.936,5.086,6.568,9.611,10.758,13.491
			V300.219z M411.302,285.243c-3.708-0.359-7.454-0.355-11.197,0.019v-58.541c1.899,0.19,3.798,0.315,5.692,0.315
			c1.842,0,3.677-0.12,5.505-0.298V285.243z"/>
	</g>
</g>
</svg>