<?xml version="1.0" encoding="iso-8859-1"?>
<!-- Uploaded to: SVG Repo, www.svgrepo.com, Generator: SVG Repo Mixer Tools -->
<svg fill="#000000" version="1.1" id="Layer_1" xmlns="http://www.w3.org/2000/svg" xmlns:xlink="http://www.w3.org/1999/xlink" 
	 viewBox="0 0 511.999 511.999" xml:space="preserve">
<g>
	<g>
		<rect x="101.656" y="376.983" width="33.388" height="54.823"/>
	</g>
</g>
<g>
	<g>
		<rect x="189.901" y="376.983" width="33.388" height="54.823"/>
	</g>
</g>
<g>
	<g>
		<rect x="145.784" y="376.983" width="33.388" height="91.272"/>
	</g>
</g>
<g>
	<g>
		<rect x="288.708" y="376.983" width="33.388" height="54.823"/>
	</g>
</g>
<g>
	<g>
		<rect x="376.953" y="376.983" width="33.388" height="54.823"/>
	</g>
</g>
<g>
	<g>
		<rect x="332.836" y="376.983" width="33.388" height="91.272"/>
	</g>
</g>
<g>
	<g>
		<path d="M506.663,126.206c-8.378-37.091-25.224-64.02-47.431-75.823c-14.837-7.888-31.585-8.763-48.43-2.534
			c-14.04,5.191-28.348,15.423-42.633,30.44c-6.008-1.331-12.24-2.056-18.642-2.056c-40.66,0-74.804,28.334-83.787,66.289h-19.482
			c-8.981-37.955-43.126-66.289-83.786-66.289c-6.402,0-12.635,0.723-18.642,2.056c-14.286-15.017-28.594-25.249-42.633-30.44
			c-16.843-6.227-33.593-5.352-48.43,2.534C30.56,62.186,13.715,89.115,5.337,126.206c-7.571,33.515-7.066,70.375,1.388,101.127
			c11.57,42.088,36.483,67.963,69.632,73.315v51.686h172.232v-24.381h14.822v24.381h172.232v-51.687
			c33.148-5.355,58.063-31.229,69.632-73.314C513.728,196.581,514.235,159.721,506.663,126.206z M76.358,162.349v104.04
			c-21.447-6.534-32.138-28.619-37.438-47.904C24.59,166.359,39.763,95.105,68.438,79.865c13.606-7.231,29.266,1.136,42.857,13.275
			C90.115,108.843,76.358,134.017,76.358,162.349z M263.41,294.565h-14.822V175.909h14.822V294.565z M473.08,218.485
			c-5.301,19.287-15.983,41.36-37.438,47.898V162.349c0-28.332-13.757-53.506-34.937-69.209
			c13.591-12.139,29.251-20.506,42.856-13.275C472.236,95.105,487.41,166.359,473.08,218.485z"/>
	</g>
</g>
</svg>