<?xml version="1.0" encoding="iso-8859-1"?>
<!-- Uploaded to: SVG Repo, www.svgrepo.com, Generator: SVG Repo Mixer Tools -->
<svg fill="#000000" height="800px" width="800px" version="1.1" id="Layer_1" xmlns="http://www.w3.org/2000/svg" xmlns:xlink="http://www.w3.org/1999/xlink" 
	 viewBox="0 0 512 512" xml:space="preserve">
<g>
	<g>
		<path d="M354.462,164.103v-32.82h-69.094c23.375-11.028,39.555-34.798,39.555-62.358V49.231H187.077v19.694
			c0,27.56,16.181,51.33,39.555,62.358h-69.094v32.82H0v183.795h157.538v32.82h69.094c-23.375,11.028-39.555,34.798-39.555,62.358
			v19.694h137.846v-19.694c0-27.56-16.181-51.33-39.555-62.358h69.094v-32.82H512V164.103H354.462z M78.769,308.513H39.385V203.487
			h39.385V308.513z M157.538,308.513h-39.385V203.487h39.385V308.513z M256,282.256c-14.501,0-26.256-11.755-26.256-26.256
			s11.755-26.256,26.256-26.256s26.256,11.755,26.256,26.256S270.501,282.256,256,282.256z M393.846,308.513h-39.385V203.487h39.385
			V308.513z M472.615,308.513h-39.385V203.487h39.385V308.513z"/>
	</g>
</g>
</svg>